<svg width="130" height="65" viewBox="0 0 130 65" fill="none" xmlns="http://www.w3.org/2000/svg">
<path d="M9.59304 63.303L8.03125 63.1883L8.15251 61.5368L5.22639 61.3219L4.17653 59.1512L4.30965 57.3381L5.87145 57.4528L5.71328 59.607L8.28037 59.7954L8.43854 57.6412L10.0003 57.7559L9.84216 59.9101L17.2562 60.4545L17.1283 62.1958L9.71431 61.6514L9.59304 63.303Z" fill="#4A4A4A"/>
<path d="M11.3812 50.547L10.7184 53.7552L17.9986 55.2595L17.6453 56.9693L8.83146 55.1482L9.09734 53.8614L9.90749 53.5877L9.44335 52.1868L9.84763 50.2301L11.3812 50.547Z" fill="#4A4A4A"/>
<path d="M20.6152 43.5217L20.975 45.906L19.706 49.1399L17.8205 50.643L11.5203 48.1706L11.1604 45.7863L12.4295 42.5524L14.3149 41.0493L20.6152 43.5217ZM12.4933 46.6768L18.1233 48.8861L19.6422 45.0155L14.0122 42.8061L12.4933 46.6768Z" fill="#4A4A4A"/>
<path d="M20.0645 31.4676L26.6692 35.7729L25.7158 37.2356L19.4126 33.1269L17.1421 36.6103L23.4452 40.7189L22.4918 42.1816L14.8767 37.2178L15.5943 36.117L16.4484 36.1581L16.528 34.6845L17.914 32.5583L20.0645 31.4676Z" fill="#4A4A4A"/>
<path d="M22.3387 29.3313L21.1997 28.2566L22.3361 27.0521L21.2364 26.0145L21.7014 24.0528L23.5343 25.7822L25.0167 24.2111L26.1557 25.2857L24.6734 26.8568L28.9415 30.8838L30.4238 29.3127L31.5629 30.3874L30.3153 31.7097L28.0052 32.4008L23.4752 28.1268L22.3387 29.3313Z" fill="#4A4A4A"/>
<path d="M37.8243 23.3228L38.7685 24.5722L34.7619 27.6L32.369 27.8967L28.3427 22.5689L29.2814 20.3479L31.6222 18.579L34.0152 18.2823L36.4244 21.4703L32.1449 24.7043L33.5449 26.5568L37.8243 23.3228ZM29.9528 21.8035L31.2008 23.4549L34.0872 21.2736L32.8392 19.6221L29.9528 21.8035Z" fill="#4A4A4A"/>
<path d="M43.529 13.2471L46.9744 20.3384L45.4039 21.1014L42.1159 14.3339L38.3759 16.151L41.664 22.9185L40.0935 23.6815L36.1211 15.5054L37.303 14.9312L38.0141 15.4062L38.8411 14.1839L41.1239 13.0748L43.529 13.2471Z" fill="#4A4A4A"/>
<path d="M48.7188 10.2286L51.3552 9.56764L52.7743 9.97269L51.6099 5.32843L53.3035 4.90382L56.5209 17.7366L55.2463 18.0562L54.6478 17.4454L53.5876 18.472L50.9512 19.133L48.6326 18.471L46.9867 11.9062L48.7188 10.2286ZM54.4464 16.6423L52.9756 10.7758L48.7679 11.8308L50.2387 17.6972L54.4464 16.6423Z" fill="#4A4A4A"/>
<path d="M71.087 8.34883L73.7744 8.7555L74.9276 9.67641L75.644 4.94231L77.3703 5.20355L75.3908 18.2846L74.0916 18.088L73.7749 17.2937L72.4009 17.8322L69.7135 17.4255L67.8294 15.9207L68.8421 9.22884L71.087 8.34883ZM73.8988 16.475L74.8037 10.4951L70.5145 9.84603L69.6096 15.8259L73.8988 16.475Z" fill="#4A4A4A"/>
<path d="M84.5675 19.6454L84.0339 21.1177L79.3124 19.4065L77.7603 17.5612L80.0358 11.2828L82.4097 10.8605L85.1682 11.8602L86.7203 13.7055L85.3587 17.4623L80.3157 15.6346L79.5245 17.8177L84.5675 19.6454ZM81.5546 12.2162L80.8493 14.1623L84.2508 15.3951L84.9561 13.449L81.5546 12.2162Z" fill="#4A4A4A"/>
<path d="M90.6224 14.3578L89.1653 22.0267L89.1963 22.045L95.2253 17.0769L96.6976 17.9466L89.2529 24.0018L87.4396 22.9306L89.1502 13.488L90.6224 14.3578Z" fill="#4A4A4A"/>
<path d="M99.4867 29.9551L98.4541 31.1324L94.6785 27.821L93.9039 25.5376L98.3072 20.5169L100.672 20.987L102.878 22.9216L103.653 25.2051L101.018 28.2093L96.985 24.6725L95.4539 26.4182L99.4867 29.9551ZM99.3825 21.9389L98.0176 23.4951L100.738 25.8807L102.103 24.3245L99.3825 21.9389Z" fill="#4A4A4A"/>
<path d="M101.15 34.2865L100.723 31.9133L109.837 24.2089L110.964 25.5423L102.125 33.0143L103.52 34.6638L102.324 35.6748L101.15 34.2865Z" fill="#4A4A4A"/>
<path d="M108.131 42.6766L106.022 41.5078L104.233 38.5298L104.191 36.1189L109.993 32.6337L112.102 33.8026L113.891 36.7806L113.932 39.1915L108.131 42.6766ZM110.583 34.3158L105.399 37.4302L107.54 40.9945L112.725 37.8801L110.583 34.3158Z" fill="#4A4A4A"/>
<path d="M109.888 50.4952L108.991 47.9296L109.265 46.4796L105.255 47.8819L104.679 46.2338L116.658 42.0447L117.091 43.285L116.537 43.9364L117.656 44.8992L118.553 47.4648L118.104 49.8339L111.715 52.068L109.888 50.4952ZM115.756 44.2098L110.047 46.2063L111.479 50.3011L117.188 48.3046L115.756 44.2098Z" fill="#4A4A4A"/>
<path d="M113.662 61.2557L112.111 61.4722L111.417 56.4984L112.323 54.2637L118.937 53.3406L120.42 55.2419L120.825 58.1477L119.92 60.3823L115.962 60.9347L115.22 55.6222L112.921 55.9432L113.662 61.2557ZM118.821 55.1196L116.771 55.4057L117.271 58.989L119.322 58.7029L118.821 55.1196Z" fill="#4A4A4A"/>
</svg>
