<svg xmlns="http://www.w3.org/2000/svg" xmlns:v="https://svgstorm.com"
viewBox = "0 0 480 204"
width="480"
height="204">
<g fill="None" fill-opacity="0.0" stroke="#000000" stroke-opacity="0.00" stroke-width="0.3"><path d="
M 0.00 204.00 
L 480.00 204.00
L 480.00 0.00
L 0.00 0.00
L 0.00 204.00
M 281.00 20.00 
C 289.88 21.88 286.28 37.73 277.00 35.00 C 267.71 32.26 271.66 18.02 281.00 20.00
M 323.00 20.00 
C 332.07 22.30 327.46 38.01 318.33 34.67 C 309.20 31.33 313.76 17.66 323.00 20.00
M 49.00 151.00 
C 54.79 151.47 62.38 150.37 68.00 151.00 C 73.62 151.63 82.04 149.79 87.00 151.00 C 91.96 152.21 103.26 148.08 106.00 152.00
C 109.60 157.15 103.30 169.22 106.00 175.00
C 96.88 174.56 85.93 175.58 77.00 175.00 C 68.07 174.42 56.26 176.11 48.00 175.00 C 39.74 173.89 24.08 179.48 23.00 170.00 C 21.93 160.52 23.48 150.63 23.00 141.00 C 22.52 131.37 23.21 121.75 23.00 112.00 C 22.79 102.25 23.10 91.81 23.00 82.00 C 22.90 72.19 23.05 62.85 23.00 53.00 C 22.95 43.15 23.04 32.89 23.00 23.00
C 69.67 23.00 116.33 23.00 163.00 23.00
C 160.97 47.92 168.42 81.23 155.69 102.69 C 142.97 124.16 115.19 127.82 93.92 116.08 C 72.65 104.33 72.46 71.03 74.00 49.00
C 65.67 49.00 57.33 49.00 49.00 49.00
C 49.00 83.00 49.00 117.00 49.00 151.00
M 195.00 64.00 
C 195.00 69.00 195.00 74.00 195.00 79.00
C 190.67 79.00 186.33 79.00 182.00 79.00
C 182.00 60.67 182.00 42.33 182.00 24.00
C 196.93 24.27 217.04 20.24 222.32 37.68 C 227.60 55.11 212.10 68.20 195.00 64.00
M 240.00 24.00 
C 240.00 30.00 240.00 36.00 240.00 42.00
C 247.03 38.34 261.47 35.73 263.97 46.03 C 266.48 56.33 264.23 68.22 265.00 79.00
C 261.00 79.00 257.00 79.00 253.00 79.00
C 250.35 72.21 259.05 50.25 247.00 51.00 C 234.95 51.76 241.74 71.51 240.00 79.00
C 236.00 79.00 232.00 79.00 228.00 79.00
C 228.00 60.67 228.00 42.33 228.00 24.00
C 232.00 24.00 236.00 24.00 240.00 24.00
M 305.00 24.00 
C 305.58 31.35 304.23 40.87 305.00 48.00 C 305.77 55.13 301.82 64.90 309.00 68.00
C 313.42 78.43 302.68 83.89 296.25 76.75 C 289.82 69.61 293.94 60.94 293.00 52.00 C 292.06 43.06 293.70 33.04 293.00 24.00
C 297.00 24.00 301.00 24.00 305.00 24.00
M 285.00 39.00 
C 285.00 52.33 285.00 65.67 285.00 79.00
C 281.00 79.00 277.00 79.00 273.00 79.00
C 273.00 65.67 273.00 52.33 273.00 39.00
C 277.00 39.00 281.00 39.00 285.00 39.00
M 327.00 39.00 
C 327.00 52.33 327.00 65.67 327.00 79.00
C 322.67 79.00 318.33 79.00 314.00 79.00
C 314.00 65.67 314.00 52.33 314.00 39.00
C 318.33 39.00 322.67 39.00 327.00 39.00
M 345.00 43.00 
C 357.90 32.90 373.68 41.54 375.00 57.00 C 376.31 72.47 362.76 86.45 347.00 78.00
C 347.00 83.67 347.00 89.33 347.00 95.00
C 343.00 95.00 339.00 95.00 335.00 95.00
C 335.00 76.33 335.00 57.67 335.00 39.00
C 338.50 39.44 345.83 37.09 345.00 43.00
M 390.00 43.00 
C 403.29 33.26 418.77 41.07 420.00 57.00 C 421.23 72.93 408.34 86.18 392.00 78.00
C 392.00 83.67 392.00 89.33 392.00 95.00
C 388.00 95.00 384.00 95.00 380.00 95.00
C 380.00 76.33 380.00 57.67 380.00 39.00
C 383.63 39.68 391.44 36.64 390.00 43.00
M 234.00 117.00 
C 241.67 119.18 237.73 134.01 229.33 130.67 C 220.93 127.33 225.23 114.51 234.00 117.00
M 250.00 117.00 
C 258.01 119.03 253.49 134.18 245.33 130.67 C 237.17 127.15 241.11 114.75 250.00 117.00
M 195.00 120.00 
C 195.00 134.33 195.00 148.67 195.00 163.00
C 202.00 163.00 209.00 163.00 216.00 163.00
C 216.00 167.00 216.00 171.00 216.00 175.00
C 204.67 175.00 193.33 175.00 182.00 175.00
C 182.00 156.67 182.00 138.33 182.00 120.00
C 186.33 120.00 190.67 120.00 195.00 120.00
M 423.00 120.00 
C 423.00 126.00 423.00 132.00 423.00 138.00
C 430.03 134.34 444.47 131.73 446.97 142.03 C 449.48 152.33 447.23 164.22 448.00 175.00
C 444.00 175.00 440.00 175.00 436.00 175.00
C 433.35 168.21 442.05 146.25 430.00 147.00 C 417.95 147.75 424.74 167.51 423.00 175.00
C 419.00 175.00 415.00 175.00 411.00 175.00
C 411.00 156.67 411.00 138.33 411.00 120.00
C 415.00 120.00 419.00 120.00 423.00 120.00
M 281.00 126.00 
C 281.00 129.00 281.00 132.00 281.00 135.00
C 284.00 135.00 287.00 135.00 290.00 135.00
C 290.00 139.00 290.00 143.00 290.00 147.00
C 287.00 147.00 284.00 147.00 281.00 147.00
C 280.72 153.69 278.96 168.41 290.00 163.00
C 294.95 175.31 281.77 179.78 273.31 173.69 C 264.84 167.61 269.19 155.82 268.00 147.00
C 259.56 149.56 262.40 140.07 262.00 135.00
C 271.93 136.89 268.53 120.62 281.00 126.00
M 358.00 149.00 
C 354.63 146.13 345.70 141.68 344.00 148.00
C 355.08 147.90 371.05 159.33 362.69 170.69 C 354.34 182.06 337.40 176.75 332.00 167.00
C 335.37 166.10 337.11 162.62 340.00 161.00
C 342.66 165.59 347.96 166.65 353.00 166.00
C 350.72 157.11 335.21 161.66 333.22 150.78 C 331.23 139.89 341.22 133.22 351.00 134.00 C 360.78 134.79 369.63 142.87 358.00 149.00
M 247.00 135.00 
C 260.79 138.41 265.18 161.69 254.75 170.75 C 244.32 179.81 222.86 178.59 219.08 161.92 C 215.29 145.26 229.09 130.56 247.00 135.00
M 328.00 135.00 
C 331.35 148.16 317.64 154.36 312.00 164.00
C 317.33 164.00 322.67 164.00 328.00 164.00
C 328.00 167.67 328.00 171.33 328.00 175.00
C 317.00 175.00 306.00 175.00 295.00 175.00
C 292.29 162.28 305.89 156.14 312.00 147.00
C 306.67 147.00 301.33 147.00 296.00 147.00
C 296.00 143.00 296.00 139.00 296.00 135.00
C 306.67 135.00 317.33 135.00 328.00 135.00
M 407.00 147.00 
C 403.11 149.04 399.17 150.78 395.00 152.00
C 392.51 143.09 380.24 146.94 380.22 155.22 C 380.21 163.50 392.48 168.20 395.00 159.00
C 399.33 159.30 402.60 162.94 407.00 163.00
C 399.78 184.04 368.52 178.35 368.00 156.00 C 367.48 133.65 398.18 126.20 407.00 147.00 Z"/>
</g>
<g fill="None" fill-opacity="0.0" stroke="#FEFEFE" stroke-opacity="0.89" stroke-width="0.3"><path d="
M 281.00 20.00 
C 271.66 18.02 267.71 32.26 277.00 35.00 C 286.28 37.73 289.88 21.88 281.00 20.00 Z"/>
</g>
<g fill="None" fill-opacity="0.0" stroke="#FEFEFE" stroke-opacity="0.90" stroke-width="0.3"><path d="
M 323.00 20.00 
C 313.76 17.66 309.20 31.33 318.33 34.67 C 327.46 38.01 332.07 22.30 323.00 20.00 Z"/>
</g>
<g fill="None" fill-opacity="0.0" stroke="#3DCFB6" stroke-opacity="0.97" stroke-width="0.3"><path d="
M 106.00 152.00 
C 100.21 151.53 92.61 152.63 87.00 152.00 C 81.39 151.37 72.96 153.21 68.00 152.00 C 63.04 150.79 51.74 154.92 49.00 151.00
C 49.00 117.00 49.00 83.00 49.00 49.00
C 57.33 49.00 65.67 49.00 74.00 49.00
C 72.46 71.03 72.65 104.33 93.92 116.08 C 115.19 127.82 142.97 124.16 155.69 102.69 C 168.42 81.23 160.97 47.92 163.00 23.00
C 116.33 23.00 69.67 23.00 23.00 23.00
C 23.04 32.89 22.95 43.15 23.00 53.00 C 23.05 62.85 22.90 72.19 23.00 82.00 C 23.10 91.81 22.79 102.25 23.00 112.00 C 23.21 121.75 22.52 131.37 23.00 141.00 C 23.48 150.63 21.93 160.52 23.00 170.00 C 24.08 179.48 39.74 173.89 48.00 175.00 C 56.26 176.11 68.07 174.42 77.00 175.00 C 85.93 175.58 96.88 174.56 106.00 175.00
C 103.30 169.22 109.60 157.15 106.00 152.00
M 140.00 49.00 
C 140.38 67.37 143.95 94.44 119.00 95.00 C 94.05 95.56 95.70 67.68 97.00 49.00
C 111.33 49.00 125.67 49.00 140.00 49.00 Z"/>
</g>
<g fill="None" fill-opacity="0.0" stroke="#FEFEFE" stroke-opacity="0.94" stroke-width="0.3"><path d="
M 195.00 64.00 
C 212.10 68.20 227.60 55.11 222.32 37.68 C 217.04 20.24 196.93 24.27 182.00 24.00
C 182.00 42.33 182.00 60.67 182.00 79.00
C 186.33 79.00 190.67 79.00 195.00 79.00
C 195.00 74.00 195.00 69.00 195.00 64.00
M 195.00 52.00 
C 195.00 46.67 195.00 41.33 195.00 36.00
C 200.85 35.50 210.77 36.05 210.93 44.07 C 211.08 52.10 201.14 53.03 195.00 52.00 Z"/>
</g>
<g fill="None" fill-opacity="0.0" stroke="#FEFEFE" stroke-opacity="0.97" stroke-width="0.3"><path d="
M 240.00 24.00 
C 236.00 24.00 232.00 24.00 228.00 24.00
C 228.00 42.33 228.00 60.67 228.00 79.00
C 232.00 79.00 236.00 79.00 240.00 79.00
C 241.74 71.51 234.95 51.76 247.00 51.00 C 259.05 50.25 250.35 72.21 253.00 79.00
C 257.00 79.00 261.00 79.00 265.00 79.00
C 264.23 68.22 266.48 56.33 263.97 46.03 C 261.47 35.73 247.03 38.34 240.00 42.00
C 240.00 36.00 240.00 30.00 240.00 24.00 Z"/>
</g>
<g fill="None" fill-opacity="0.0" stroke="#FEFEFE" stroke-opacity="0.96" stroke-width="0.3"><path d="
M 305.00 24.00 
C 301.00 24.00 297.00 24.00 293.00 24.00
C 293.70 33.04 292.06 43.06 293.00 52.00 C 293.94 60.94 289.82 69.61 296.25 76.75 C 302.68 83.89 313.42 78.43 309.00 68.00
C 301.82 64.90 305.77 55.13 305.00 48.00 C 304.23 40.87 305.58 31.35 305.00 24.00 Z"/>
</g>
<g fill="None" fill-opacity="0.0" stroke="#000000" stroke-opacity="0.00" stroke-width="0.3"><path d="
M 195.00 52.00 
C 201.14 53.03 211.08 52.10 210.93 44.07 C 210.77 36.05 200.85 35.50 195.00 36.00
C 195.00 41.33 195.00 46.67 195.00 52.00 Z"/>
</g>
<g fill="None" fill-opacity="0.0" stroke="#FEFEFE" stroke-opacity="0.97" stroke-width="0.3"><path d="
M 285.00 39.00 
C 281.00 39.00 277.00 39.00 273.00 39.00
C 273.00 52.33 273.00 65.67 273.00 79.00
C 277.00 79.00 281.00 79.00 285.00 79.00
C 285.00 65.67 285.00 52.33 285.00 39.00 Z"/>
</g>
<g fill="None" fill-opacity="0.0" stroke="#FEFEFE" stroke-opacity="0.92" stroke-width="0.3"><path d="
M 327.00 39.00 
C 322.67 39.00 318.33 39.00 314.00 39.00
C 314.00 52.33 314.00 65.67 314.00 79.00
C 318.33 79.00 322.67 79.00 327.00 79.00
C 327.00 65.67 327.00 52.33 327.00 39.00 Z"/>
</g>
<g fill="None" fill-opacity="0.0" stroke="#FEFEFE" stroke-opacity="0.95" stroke-width="0.3"><path d="
M 345.00 43.00 
C 345.83 37.09 338.50 39.44 335.00 39.00
C 335.00 57.67 335.00 76.33 335.00 95.00
C 339.00 95.00 343.00 95.00 347.00 95.00
C 347.00 89.33 347.00 83.67 347.00 78.00
C 362.76 86.45 376.31 72.47 375.00 57.00 C 373.68 41.54 357.90 32.90 345.00 43.00
M 356.00 50.00 
C 364.86 50.99 364.74 69.72 354.31 68.65 C 343.87 67.57 344.73 48.74 356.00 50.00 Z"/>
</g>
<g fill="None" fill-opacity="0.0" stroke="#FEFEFE" stroke-opacity="0.95" stroke-width="0.3"><path d="
M 390.00 43.00 
C 391.44 36.64 383.63 39.68 380.00 39.00
C 380.00 57.67 380.00 76.33 380.00 95.00
C 384.00 95.00 388.00 95.00 392.00 95.00
C 392.00 89.33 392.00 83.67 392.00 78.00
C 408.34 86.18 421.23 72.93 420.00 57.00 C 418.77 41.07 403.29 33.26 390.00 43.00
M 402.00 50.00 
C 411.09 51.99 409.13 70.24 398.77 68.21 C 388.42 66.18 391.00 47.59 402.00 50.00 Z"/>
</g>
<g fill="None" fill-opacity="0.0" stroke="#000000" stroke-opacity="0.00" stroke-width="0.3"><path d="
M 140.00 49.00 
C 125.67 49.00 111.33 49.00 97.00 49.00
C 95.70 67.68 94.05 95.56 119.00 95.00 C 143.95 94.44 140.38 67.37 140.00 49.00 Z"/>
</g>
<g fill="None" fill-opacity="0.0" stroke="#000000" stroke-opacity="0.00" stroke-width="0.3"><path d="
M 356.00 50.00 
C 344.73 48.74 343.87 67.57 354.31 68.65 C 364.74 69.72 364.86 50.99 356.00 50.00 Z"/>
</g>
<g fill="None" fill-opacity="0.0" stroke="#000000" stroke-opacity="0.00" stroke-width="0.3"><path d="
M 402.00 50.00 
C 391.00 47.59 388.42 66.18 398.77 68.21 C 409.13 70.24 411.09 51.99 402.00 50.00 Z"/>
</g>
<g fill="None" fill-opacity="0.0" stroke="#FEFEFE" stroke-opacity="0.89" stroke-width="0.3"><path d="
M 234.00 117.00 
C 225.23 114.51 220.93 127.33 229.33 130.67 C 237.73 134.01 241.67 119.18 234.00 117.00 Z"/>
</g>
<g fill="None" fill-opacity="0.0" stroke="#FEFEFE" stroke-opacity="0.89" stroke-width="0.3"><path d="
M 250.00 117.00 
C 241.11 114.75 237.17 127.15 245.33 130.67 C 253.49 134.18 258.01 119.03 250.00 117.00 Z"/>
</g>
<g fill="None" fill-opacity="0.0" stroke="#FEFEFE" stroke-opacity="0.94" stroke-width="0.3"><path d="
M 195.00 120.00 
C 190.67 120.00 186.33 120.00 182.00 120.00
C 182.00 138.33 182.00 156.67 182.00 175.00
C 193.33 175.00 204.67 175.00 216.00 175.00
C 216.00 171.00 216.00 167.00 216.00 163.00
C 209.00 163.00 202.00 163.00 195.00 163.00
C 195.00 148.67 195.00 134.33 195.00 120.00 Z"/>
</g>
<g fill="None" fill-opacity="0.0" stroke="#FEFEFE" stroke-opacity="0.97" stroke-width="0.3"><path d="
M 423.00 120.00 
C 419.00 120.00 415.00 120.00 411.00 120.00
C 411.00 138.33 411.00 156.67 411.00 175.00
C 415.00 175.00 419.00 175.00 423.00 175.00
C 424.74 167.51 417.95 147.75 430.00 147.00 C 442.05 146.25 433.35 168.21 436.00 175.00
C 440.00 175.00 444.00 175.00 448.00 175.00
C 447.23 164.22 449.48 152.33 446.97 142.03 C 444.47 131.73 430.03 134.34 423.00 138.00
C 423.00 132.00 423.00 126.00 423.00 120.00 Z"/>
</g>
<g fill="None" fill-opacity="0.0" stroke="#FEFEFE" stroke-opacity="0.92" stroke-width="0.3"><path d="
M 281.00 126.00 
C 268.53 120.62 271.93 136.89 262.00 135.00
C 262.40 140.07 259.56 149.56 268.00 147.00
C 269.19 155.82 264.84 167.61 273.31 173.69 C 281.77 179.78 294.95 175.31 290.00 163.00
C 278.96 168.41 280.72 153.69 281.00 147.00
C 284.00 147.00 287.00 147.00 290.00 147.00
C 290.00 143.00 290.00 139.00 290.00 135.00
C 287.00 135.00 284.00 135.00 281.00 135.00
C 281.00 132.00 281.00 129.00 281.00 126.00 Z"/>
</g>
<g fill="None" fill-opacity="0.0" stroke="#FEFEFE" stroke-opacity="0.92" stroke-width="0.3"><path d="
M 358.00 149.00 
C 369.63 142.87 360.78 134.79 351.00 134.00 C 341.22 133.22 331.23 139.89 333.22 150.78 C 335.21 161.66 350.72 157.11 353.00 166.00
C 347.96 166.65 342.66 165.59 340.00 161.00
C 337.11 162.62 335.37 166.10 332.00 167.00
C 337.40 176.75 354.34 182.06 362.69 170.69 C 371.05 159.33 355.08 147.90 344.00 148.00
C 345.70 141.68 354.63 146.13 358.00 149.00 Z"/>
</g>
<g fill="None" fill-opacity="0.0" stroke="#FEFEFE" stroke-opacity="0.95" stroke-width="0.3"><path d="
M 247.00 135.00 
C 229.09 130.56 215.29 145.26 219.08 161.92 C 222.86 178.59 244.32 179.81 254.75 170.75 C 265.18 161.69 260.79 138.41 247.00 135.00
M 243.00 147.00 
C 252.86 150.11 246.35 168.37 236.33 163.67 C 226.30 158.97 232.08 143.55 243.00 147.00 Z"/>
</g>
<g fill="None" fill-opacity="0.0" stroke="#FEFEFE" stroke-opacity="0.93" stroke-width="0.3"><path d="
M 328.00 135.00 
C 317.33 135.00 306.67 135.00 296.00 135.00
C 296.00 139.00 296.00 143.00 296.00 147.00
C 301.33 147.00 306.67 147.00 312.00 147.00
C 305.89 156.14 292.29 162.28 295.00 175.00
C 306.00 175.00 317.00 175.00 328.00 175.00
C 328.00 171.33 328.00 167.67 328.00 164.00
C 322.67 164.00 317.33 164.00 312.00 164.00
C 317.64 154.36 331.35 148.16 328.00 135.00 Z"/>
</g>
<g fill="None" fill-opacity="0.0" stroke="#FEFEFE" stroke-opacity="0.93" stroke-width="0.3"><path d="
M 407.00 147.00 
C 398.18 126.20 367.48 133.65 368.00 156.00 C 368.52 178.35 399.78 184.04 407.00 163.00
C 402.60 162.94 399.33 159.30 395.00 159.00
C 392.48 168.20 380.21 163.50 380.22 155.22 C 380.24 146.94 392.51 143.09 395.00 152.00
C 399.17 150.78 403.11 149.04 407.00 147.00 Z"/>
</g>
<g fill="None" fill-opacity="0.0" stroke="#000000" stroke-opacity="0.00" stroke-width="0.3"><path d="
M 243.00 147.00 
C 232.08 143.55 226.30 158.97 236.33 163.67 C 246.35 168.37 252.86 150.11 243.00 147.00 Z"/>
</g>
<g fill="None" fill-opacity="0.0" stroke="#00FF80" stroke-opacity="0.01" stroke-width="0.3"><path d="
M 106.00 152.00 
C 103.26 148.08 91.96 152.21 87.00 151.00 C 82.04 149.79 73.62 151.63 68.00 151.00 C 62.38 150.37 54.79 151.47 49.00 151.00
C 51.74 154.92 63.04 150.79 68.00 152.00 C 72.96 153.21 81.39 151.37 87.00 152.00 C 92.61 152.63 100.21 151.53 106.00 152.00 Z"/>
</g>
<g fill="#000000" fill-opacity="0.00" stroke="None">
<path d="
M 0.00 204.00 
L 480.00 204.00
L 480.00 0.00
L 0.00 0.00
L 0.00 204.00
M 281.00 20.00 
C 289.88 21.88 286.28 37.73 277.00 35.00 C 267.71 32.26 271.66 18.02 281.00 20.00
M 323.00 20.00 
C 332.07 22.30 327.46 38.01 318.33 34.67 C 309.20 31.33 313.76 17.66 323.00 20.00
M 49.00 151.00 
C 54.79 151.47 62.38 150.37 68.00 151.00 C 73.62 151.63 82.04 149.79 87.00 151.00 C 91.96 152.21 103.26 148.08 106.00 152.00
C 109.60 157.15 103.30 169.22 106.00 175.00
C 96.88 174.56 85.93 175.58 77.00 175.00 C 68.07 174.42 56.26 176.11 48.00 175.00 C 39.74 173.89 24.08 179.48 23.00 170.00 C 21.93 160.52 23.48 150.63 23.00 141.00 C 22.52 131.37 23.21 121.75 23.00 112.00 C 22.79 102.25 23.10 91.81 23.00 82.00 C 22.90 72.19 23.05 62.85 23.00 53.00 C 22.95 43.15 23.04 32.89 23.00 23.00
C 69.67 23.00 116.33 23.00 163.00 23.00
C 160.97 47.92 168.42 81.23 155.69 102.69 C 142.97 124.16 115.19 127.82 93.92 116.08 C 72.65 104.33 72.46 71.03 74.00 49.00
C 65.67 49.00 57.33 49.00 49.00 49.00
C 49.00 83.00 49.00 117.00 49.00 151.00
M 195.00 64.00 
C 195.00 69.00 195.00 74.00 195.00 79.00
C 190.67 79.00 186.33 79.00 182.00 79.00
C 182.00 60.67 182.00 42.33 182.00 24.00
C 196.93 24.27 217.04 20.24 222.32 37.68 C 227.60 55.11 212.10 68.20 195.00 64.00
M 240.00 24.00 
C 240.00 30.00 240.00 36.00 240.00 42.00
C 247.03 38.34 261.47 35.73 263.97 46.03 C 266.48 56.33 264.23 68.22 265.00 79.00
C 261.00 79.00 257.00 79.00 253.00 79.00
C 250.35 72.21 259.05 50.25 247.00 51.00 C 234.95 51.76 241.74 71.51 240.00 79.00
C 236.00 79.00 232.00 79.00 228.00 79.00
C 228.00 60.67 228.00 42.33 228.00 24.00
C 232.00 24.00 236.00 24.00 240.00 24.00
M 305.00 24.00 
C 305.58 31.35 304.23 40.87 305.00 48.00 C 305.77 55.13 301.82 64.90 309.00 68.00
C 313.42 78.43 302.68 83.89 296.25 76.75 C 289.82 69.61 293.94 60.94 293.00 52.00 C 292.06 43.06 293.70 33.04 293.00 24.00
C 297.00 24.00 301.00 24.00 305.00 24.00
M 285.00 39.00 
C 285.00 52.33 285.00 65.67 285.00 79.00
C 281.00 79.00 277.00 79.00 273.00 79.00
C 273.00 65.67 273.00 52.33 273.00 39.00
C 277.00 39.00 281.00 39.00 285.00 39.00
M 327.00 39.00 
C 327.00 52.33 327.00 65.67 327.00 79.00
C 322.67 79.00 318.33 79.00 314.00 79.00
C 314.00 65.67 314.00 52.33 314.00 39.00
C 318.33 39.00 322.67 39.00 327.00 39.00
M 345.00 43.00 
C 357.90 32.90 373.68 41.54 375.00 57.00 C 376.31 72.47 362.76 86.45 347.00 78.00
C 347.00 83.67 347.00 89.33 347.00 95.00
C 343.00 95.00 339.00 95.00 335.00 95.00
C 335.00 76.33 335.00 57.67 335.00 39.00
C 338.50 39.44 345.83 37.09 345.00 43.00
M 390.00 43.00 
C 403.29 33.26 418.77 41.07 420.00 57.00 C 421.23 72.93 408.34 86.18 392.00 78.00
C 392.00 83.67 392.00 89.33 392.00 95.00
C 388.00 95.00 384.00 95.00 380.00 95.00
C 380.00 76.33 380.00 57.67 380.00 39.00
C 383.63 39.68 391.44 36.64 390.00 43.00
M 234.00 117.00 
C 241.67 119.18 237.73 134.01 229.33 130.67 C 220.93 127.33 225.23 114.51 234.00 117.00
M 250.00 117.00 
C 258.01 119.03 253.49 134.18 245.33 130.67 C 237.17 127.15 241.11 114.75 250.00 117.00
M 195.00 120.00 
C 195.00 134.33 195.00 148.67 195.00 163.00
C 202.00 163.00 209.00 163.00 216.00 163.00
C 216.00 167.00 216.00 171.00 216.00 175.00
C 204.67 175.00 193.33 175.00 182.00 175.00
C 182.00 156.67 182.00 138.33 182.00 120.00
C 186.33 120.00 190.67 120.00 195.00 120.00
M 423.00 120.00 
C 423.00 126.00 423.00 132.00 423.00 138.00
C 430.03 134.34 444.47 131.73 446.97 142.03 C 449.48 152.33 447.23 164.22 448.00 175.00
C 444.00 175.00 440.00 175.00 436.00 175.00
C 433.35 168.21 442.05 146.25 430.00 147.00 C 417.95 147.75 424.74 167.51 423.00 175.00
C 419.00 175.00 415.00 175.00 411.00 175.00
C 411.00 156.67 411.00 138.33 411.00 120.00
C 415.00 120.00 419.00 120.00 423.00 120.00
M 281.00 126.00 
C 281.00 129.00 281.00 132.00 281.00 135.00
C 284.00 135.00 287.00 135.00 290.00 135.00
C 290.00 139.00 290.00 143.00 290.00 147.00
C 287.00 147.00 284.00 147.00 281.00 147.00
C 280.72 153.69 278.96 168.41 290.00 163.00
C 294.95 175.31 281.77 179.78 273.31 173.69 C 264.84 167.61 269.19 155.82 268.00 147.00
C 259.56 149.56 262.40 140.07 262.00 135.00
C 271.93 136.89 268.53 120.62 281.00 126.00
M 358.00 149.00 
C 354.63 146.13 345.70 141.68 344.00 148.00
C 355.08 147.90 371.05 159.33 362.69 170.69 C 354.34 182.06 337.40 176.75 332.00 167.00
C 335.37 166.10 337.11 162.62 340.00 161.00
C 342.66 165.59 347.96 166.65 353.00 166.00
C 350.72 157.11 335.21 161.66 333.22 150.78 C 331.23 139.89 341.22 133.22 351.00 134.00 C 360.78 134.79 369.63 142.87 358.00 149.00
M 247.00 135.00 
C 260.79 138.41 265.18 161.69 254.75 170.75 C 244.32 179.81 222.86 178.59 219.08 161.92 C 215.29 145.26 229.09 130.56 247.00 135.00
M 328.00 135.00 
C 331.35 148.16 317.64 154.36 312.00 164.00
C 317.33 164.00 322.67 164.00 328.00 164.00
C 328.00 167.67 328.00 171.33 328.00 175.00
C 317.00 175.00 306.00 175.00 295.00 175.00
C 292.29 162.28 305.89 156.14 312.00 147.00
C 306.67 147.00 301.33 147.00 296.00 147.00
C 296.00 143.00 296.00 139.00 296.00 135.00
C 306.67 135.00 317.33 135.00 328.00 135.00
M 407.00 147.00 
C 403.11 149.04 399.17 150.78 395.00 152.00
C 392.51 143.09 380.24 146.94 380.22 155.22 C 380.21 163.50 392.48 168.20 395.00 159.00
C 399.33 159.30 402.60 162.94 407.00 163.00
C 399.78 184.04 368.52 178.35 368.00 156.00 C 367.48 133.65 398.18 126.20 407.00 147.00 Z"/>
</g>
<g fill="#FEFEFE" fill-opacity="0.89" stroke="None">
<path d="
M 281.00 20.00 
C 271.66 18.02 267.71 32.26 277.00 35.00 C 286.28 37.73 289.88 21.88 281.00 20.00 Z"/>
</g>
<g fill="#FEFEFE" fill-opacity="0.90" stroke="None">
<path d="
M 323.00 20.00 
C 313.76 17.66 309.20 31.33 318.33 34.67 C 327.46 38.01 332.07 22.30 323.00 20.00 Z"/>
</g>
<g fill="#3DCFB6" fill-opacity="0.97" stroke="None">
<path d="
M 106.00 152.00 
C 100.21 151.53 92.61 152.63 87.00 152.00 C 81.39 151.37 72.96 153.21 68.00 152.00 C 63.04 150.79 51.74 154.92 49.00 151.00
C 49.00 117.00 49.00 83.00 49.00 49.00
C 57.33 49.00 65.67 49.00 74.00 49.00
C 72.46 71.03 72.65 104.33 93.92 116.08 C 115.19 127.82 142.97 124.16 155.69 102.69 C 168.42 81.23 160.97 47.92 163.00 23.00
C 116.33 23.00 69.67 23.00 23.00 23.00
C 23.04 32.89 22.95 43.15 23.00 53.00 C 23.05 62.85 22.90 72.19 23.00 82.00 C 23.10 91.81 22.79 102.25 23.00 112.00 C 23.21 121.75 22.52 131.37 23.00 141.00 C 23.48 150.63 21.93 160.52 23.00 170.00 C 24.08 179.48 39.74 173.89 48.00 175.00 C 56.26 176.11 68.07 174.42 77.00 175.00 C 85.93 175.58 96.88 174.56 106.00 175.00
C 103.30 169.22 109.60 157.15 106.00 152.00
M 140.00 49.00 
C 140.38 67.37 143.95 94.44 119.00 95.00 C 94.05 95.56 95.70 67.68 97.00 49.00
C 111.33 49.00 125.67 49.00 140.00 49.00 Z"/>
</g>
<g fill="#FEFEFE" fill-opacity="0.94" stroke="None">
<path d="
M 195.00 64.00 
C 212.10 68.20 227.60 55.11 222.32 37.68 C 217.04 20.24 196.93 24.27 182.00 24.00
C 182.00 42.33 182.00 60.67 182.00 79.00
C 186.33 79.00 190.67 79.00 195.00 79.00
C 195.00 74.00 195.00 69.00 195.00 64.00
M 195.00 52.00 
C 195.00 46.67 195.00 41.33 195.00 36.00
C 200.85 35.50 210.77 36.05 210.93 44.07 C 211.08 52.10 201.14 53.03 195.00 52.00 Z"/>
</g>
<g fill="#FEFEFE" fill-opacity="0.97" stroke="None">
<path d="
M 240.00 24.00 
C 236.00 24.00 232.00 24.00 228.00 24.00
C 228.00 42.33 228.00 60.67 228.00 79.00
C 232.00 79.00 236.00 79.00 240.00 79.00
C 241.74 71.51 234.95 51.76 247.00 51.00 C 259.05 50.25 250.35 72.21 253.00 79.00
C 257.00 79.00 261.00 79.00 265.00 79.00
C 264.23 68.22 266.48 56.33 263.97 46.03 C 261.47 35.73 247.03 38.34 240.00 42.00
C 240.00 36.00 240.00 30.00 240.00 24.00 Z"/>
</g>
<g fill="#FEFEFE" fill-opacity="0.96" stroke="None">
<path d="
M 305.00 24.00 
C 301.00 24.00 297.00 24.00 293.00 24.00
C 293.70 33.04 292.06 43.06 293.00 52.00 C 293.94 60.94 289.82 69.61 296.25 76.75 C 302.68 83.89 313.42 78.43 309.00 68.00
C 301.82 64.90 305.77 55.13 305.00 48.00 C 304.23 40.87 305.58 31.35 305.00 24.00 Z"/>
</g>
<g fill="#000000" fill-opacity="0.00" stroke="None">
<path d="
M 195.00 52.00 
C 201.14 53.03 211.08 52.10 210.93 44.07 C 210.77 36.05 200.85 35.50 195.00 36.00
C 195.00 41.33 195.00 46.67 195.00 52.00 Z"/>
</g>
<g fill="#FEFEFE" fill-opacity="0.97" stroke="None">
<path d="
M 285.00 39.00 
C 281.00 39.00 277.00 39.00 273.00 39.00
C 273.00 52.33 273.00 65.67 273.00 79.00
C 277.00 79.00 281.00 79.00 285.00 79.00
C 285.00 65.67 285.00 52.33 285.00 39.00 Z"/>
</g>
<g fill="#FEFEFE" fill-opacity="0.92" stroke="None">
<path d="
M 327.00 39.00 
C 322.67 39.00 318.33 39.00 314.00 39.00
C 314.00 52.33 314.00 65.67 314.00 79.00
C 318.33 79.00 322.67 79.00 327.00 79.00
C 327.00 65.67 327.00 52.33 327.00 39.00 Z"/>
</g>
<g fill="#FEFEFE" fill-opacity="0.95" stroke="None">
<path d="
M 345.00 43.00 
C 345.83 37.09 338.50 39.44 335.00 39.00
C 335.00 57.67 335.00 76.33 335.00 95.00
C 339.00 95.00 343.00 95.00 347.00 95.00
C 347.00 89.33 347.00 83.67 347.00 78.00
C 362.76 86.45 376.31 72.47 375.00 57.00 C 373.68 41.54 357.90 32.90 345.00 43.00
M 356.00 50.00 
C 364.86 50.99 364.74 69.72 354.31 68.65 C 343.87 67.57 344.73 48.74 356.00 50.00 Z"/>
</g>
<g fill="#FEFEFE" fill-opacity="0.95" stroke="None">
<path d="
M 390.00 43.00 
C 391.44 36.64 383.63 39.68 380.00 39.00
C 380.00 57.67 380.00 76.33 380.00 95.00
C 384.00 95.00 388.00 95.00 392.00 95.00
C 392.00 89.33 392.00 83.67 392.00 78.00
C 408.34 86.18 421.23 72.93 420.00 57.00 C 418.77 41.07 403.29 33.26 390.00 43.00
M 402.00 50.00 
C 411.09 51.99 409.13 70.24 398.77 68.21 C 388.42 66.18 391.00 47.59 402.00 50.00 Z"/>
</g>
<g fill="#000000" fill-opacity="0.00" stroke="None">
<path d="
M 140.00 49.00 
C 125.67 49.00 111.33 49.00 97.00 49.00
C 95.70 67.68 94.05 95.56 119.00 95.00 C 143.95 94.44 140.38 67.37 140.00 49.00 Z"/>
</g>
<g fill="#000000" fill-opacity="0.00" stroke="None">
<path d="
M 356.00 50.00 
C 344.73 48.74 343.87 67.57 354.31 68.65 C 364.74 69.72 364.86 50.99 356.00 50.00 Z"/>
</g>
<g fill="#000000" fill-opacity="0.00" stroke="None">
<path d="
M 402.00 50.00 
C 391.00 47.59 388.42 66.18 398.77 68.21 C 409.13 70.24 411.09 51.99 402.00 50.00 Z"/>
</g>
<g fill="#FEFEFE" fill-opacity="0.89" stroke="None">
<path d="
M 234.00 117.00 
C 225.23 114.51 220.93 127.33 229.33 130.67 C 237.73 134.01 241.67 119.18 234.00 117.00 Z"/>
</g>
<g fill="#FEFEFE" fill-opacity="0.89" stroke="None">
<path d="
M 250.00 117.00 
C 241.11 114.75 237.17 127.15 245.33 130.67 C 253.49 134.18 258.01 119.03 250.00 117.00 Z"/>
</g>
<g fill="#FEFEFE" fill-opacity="0.94" stroke="None">
<path d="
M 195.00 120.00 
C 190.67 120.00 186.33 120.00 182.00 120.00
C 182.00 138.33 182.00 156.67 182.00 175.00
C 193.33 175.00 204.67 175.00 216.00 175.00
C 216.00 171.00 216.00 167.00 216.00 163.00
C 209.00 163.00 202.00 163.00 195.00 163.00
C 195.00 148.67 195.00 134.33 195.00 120.00 Z"/>
</g>
<g fill="#FEFEFE" fill-opacity="0.97" stroke="None">
<path d="
M 423.00 120.00 
C 419.00 120.00 415.00 120.00 411.00 120.00
C 411.00 138.33 411.00 156.67 411.00 175.00
C 415.00 175.00 419.00 175.00 423.00 175.00
C 424.74 167.51 417.95 147.75 430.00 147.00 C 442.05 146.25 433.35 168.21 436.00 175.00
C 440.00 175.00 444.00 175.00 448.00 175.00
C 447.23 164.22 449.48 152.33 446.97 142.03 C 444.47 131.73 430.03 134.34 423.00 138.00
C 423.00 132.00 423.00 126.00 423.00 120.00 Z"/>
</g>
<g fill="#FEFEFE" fill-opacity="0.92" stroke="None">
<path d="
M 281.00 126.00 
C 268.53 120.62 271.93 136.89 262.00 135.00
C 262.40 140.07 259.56 149.56 268.00 147.00
C 269.19 155.82 264.84 167.61 273.31 173.69 C 281.77 179.78 294.95 175.31 290.00 163.00
C 278.96 168.41 280.72 153.69 281.00 147.00
C 284.00 147.00 287.00 147.00 290.00 147.00
C 290.00 143.00 290.00 139.00 290.00 135.00
C 287.00 135.00 284.00 135.00 281.00 135.00
C 281.00 132.00 281.00 129.00 281.00 126.00 Z"/>
</g>
<g fill="#FEFEFE" fill-opacity="0.92" stroke="None">
<path d="
M 358.00 149.00 
C 369.63 142.87 360.78 134.79 351.00 134.00 C 341.22 133.22 331.23 139.89 333.22 150.78 C 335.21 161.66 350.72 157.11 353.00 166.00
C 347.96 166.65 342.66 165.59 340.00 161.00
C 337.11 162.62 335.37 166.10 332.00 167.00
C 337.40 176.75 354.34 182.06 362.69 170.69 C 371.05 159.33 355.08 147.90 344.00 148.00
C 345.70 141.68 354.63 146.13 358.00 149.00 Z"/>
</g>
<g fill="#FEFEFE" fill-opacity="0.95" stroke="None">
<path d="
M 247.00 135.00 
C 229.09 130.56 215.29 145.26 219.08 161.92 C 222.86 178.59 244.32 179.81 254.75 170.75 C 265.18 161.69 260.79 138.41 247.00 135.00
M 243.00 147.00 
C 252.86 150.11 246.35 168.37 236.33 163.67 C 226.30 158.97 232.08 143.55 243.00 147.00 Z"/>
</g>
<g fill="#FEFEFE" fill-opacity="0.93" stroke="None">
<path d="
M 328.00 135.00 
C 317.33 135.00 306.67 135.00 296.00 135.00
C 296.00 139.00 296.00 143.00 296.00 147.00
C 301.33 147.00 306.67 147.00 312.00 147.00
C 305.89 156.14 292.29 162.28 295.00 175.00
C 306.00 175.00 317.00 175.00 328.00 175.00
C 328.00 171.33 328.00 167.67 328.00 164.00
C 322.67 164.00 317.33 164.00 312.00 164.00
C 317.64 154.36 331.35 148.16 328.00 135.00 Z"/>
</g>
<g fill="#FEFEFE" fill-opacity="0.93" stroke="None">
<path d="
M 407.00 147.00 
C 398.18 126.20 367.48 133.65 368.00 156.00 C 368.52 178.35 399.78 184.04 407.00 163.00
C 402.60 162.94 399.33 159.30 395.00 159.00
C 392.48 168.20 380.21 163.50 380.22 155.22 C 380.24 146.94 392.51 143.09 395.00 152.00
C 399.17 150.78 403.11 149.04 407.00 147.00 Z"/>
</g>
<g fill="#000000" fill-opacity="0.00" stroke="None">
<path d="
M 243.00 147.00 
C 232.08 143.55 226.30 158.97 236.33 163.67 C 246.35 168.37 252.86 150.11 243.00 147.00 Z"/>
</g>
<g fill="#00FF80" fill-opacity="0.01" stroke="None">
<path d="
M 106.00 152.00 
C 103.26 148.08 91.96 152.21 87.00 151.00 C 82.04 149.79 73.62 151.63 68.00 151.00 C 62.38 150.37 54.79 151.47 49.00 151.00
C 51.74 154.92 63.04 150.79 68.00 152.00 C 72.96 153.21 81.39 151.37 87.00 152.00 C 92.61 152.63 100.21 151.53 106.00 152.00 Z"/>
</g>
</svg>