<svg xmlns="http://www.w3.org/2000/svg" xmlns:v="https://svgstorm.com"
viewBox = "0 0 480 204"
width="480"
height="204">
<g fill="None" fill-opacity="0.0" stroke="#000000" stroke-opacity="0.00" stroke-width="0.3"><path d="
M 0.00 204.00 
L 480.00 204.00
L 480.00 0.00
L 0.00 0.00
L 0.00 204.00
M 281.00 20.00 
C 289.88 21.88 286.28 37.73 277.00 35.00 C 267.71 32.26 271.66 18.02 281.00 20.00
M 323.00 20.00 
C 332.07 22.30 327.46 38.01 318.33 34.67 C 309.20 31.33 313.76 17.66 323.00 20.00
M 49.00 151.00 
C 54.79 151.47 62.38 150.37 68.00 151.00 C 73.62 151.63 82.04 149.79 87.00 151.00 C 91.96 152.21 103.26 148.08 106.00 152.00
C 109.60 157.15 103.30 169.22 106.00 175.00
C 96.88 174.56 85.93 175.58 77.00 175.00 C 68.07 174.42 56.26 176.11 48.00 175.00 C 39.74 173.89 24.08 179.48 23.00 170.00 C 21.93 160.52 23.48 150.63 23.00 141.00 C 22.52 131.37 23.21 121.75 23.00 112.00 C 22.79 102.25 23.10 91.81 23.00 82.00 C 22.90 72.19 23.05 62.85 23.00 53.00 C 22.95 43.15 23.04 32.89 23.00 23.00
C 69.67 23.00 116.33 23.00 163.00 23.00
C 160.97 47.92 168.42 81.23 155.69 102.69 C 142.97 124.16 115.19 127.82 93.92 116.08 C 72.65 104.33 72.46 71.03 74.00 49.00
C 65.67 49.00 57.33 49.00 49.00 49.00
C 49.00 83.00 49.00 117.00 49.00 151.00
M 195.00 64.00 
C 195.00 69.00 195.00 74.00 195.00 79.00
C 190.67 79.00 186.33 79.00 182.00 79.00
C 182.00 60.67 182.00 42.33 182.00 24.00
C 196.93 24.27 217.04 20.24 222.32 37.68 C 227.60 55.11 212.10 68.20 195.00 64.00
M 240.00 24.00 
C 240.00 30.00 240.00 36.00 240.00 42.00
C 247.03 38.34 261.47 35.73 263.97 46.03 C 266.48 56.33 264.23 68.22 265.00 79.00
C 261.00 79.00 257.00 79.00 253.00 79.00
C 250.35 72.21 259.05 50.25 247.00 51.00 C 234.95 51.76 241.74 71.51 240.00 79.00
C 236.00 79.00 232.00 79.00 228.00 79.00
C 228.00 60.67 228.00 42.33 228.00 24.00
C 232.00 24.00 236.00 24.00 240.00 24.00
M 305.00 24.00 
C 305.58 31.35 304.23 40.87 305.00 48.00 C 305.77 55.13 301.82 64.90 309.00 68.00
C 313.42 78.43 302.68 83.89 296.25 76.75 C 289.82 69.61 293.94 60.94 293.00 52.00 C 292.06 43.06 293.70 33.04 293.00 24.00
C 297.00 24.00 301.00 24.00 305.00 24.00
M 285.00 39.00 
C 285.00 52.33 285.00 65.67 285.00 79.00
C 281.00 79.00 277.00 79.00 273.00 79.00
C 273.00 65.67 273.00 52.33 273.00 39.00
C 277.00 39.00 281.00 39.00 285.00 39.00
M 327.00 39.00 
C 327.00 52.33 327.00 65.67 327.00 79.00
C 322.67 79.00 318.33 79.00 314.00 79.00
C 314.00 65.67 314.00 52.33 314.00 39.00
C 318.33 39.00 322.67 39.00 327.00 39.00
M 345.00 43.00 
C 357.90 32.90 373.68 41.54 375.00 57.00 C 376.31 72.47 362.76 86.45 347.00 78.00
C 347.00 83.67 347.00 89.33 347.00 95.00
C 343.00 95.00 339.00 95.00 335.00 95.00
C 335.00 76.33 335.00 57.67 335.00 39.00
C 338.50 39.44 345.83 37.09 345.00 43.00
M 390.00 43.00 
C 403.29 33.26 418.77 41.07 420.00 57.00 C 421.23 72.93 408.34 86.18 392.00 78.00
C 392.00 83.67 392.00 89.33 392.00 95.00
C 388.00 95.00 384.00 95.00 380.00 95.00
C 380.00 76.33 380.00 57.67 380.00 39.00
C 383.63 39.68 391.44 36.64 390.00 43.00
M 234.00 117.00 
C 241.67 119.18 237.73 134.01 229.33 130.67 C 220.93 127.33 225.23 114.51 234.00 117.00
M 250.00 117.00 
C 258.01 119.03 253.49 134.18 245.33 130.67 C 237.17 127.15 241.11 114.75 250.00 117.00
M 195.00 120.00 
C 195.00 134.33 195.00 148.67 195.00 163.00
C 202.00 163.00 209.00 163.00 216.00 163.00
C 216.00 167.00 216.00 171.00 216.00 175.00
C 204.67 175.00 193.33 175.00 182.00 175.00
C 182.00 156.67 182.00 138.33 182.00 120.00
C 186.33 120.00 190.67 120.00 195.00 120.00
M 423.00 120.00 
C 423.00 126.00 423.00 132.00 423.00 138.00
C 430.03 134.34 444.47 131.73 446.97 142.03 C 449.48 152.33 447.23 164.22 448.00 175.00
C 444.00 175.00 440.00 175.00 436.00 175.00
C 433.35 168.21 442.05 146.25 430.00 147.00 C 417.95 147.75 424.74 167.51 423.00 175.00
C 419.00 175.00 415.00 175.00 411.00 175.00
C 411.00 156.67 411.00 138.33 411.00 120.00
C 415.00 120.00 419.00 120.00 423.00 120.00
M 281.00 126.00 
C 281.00 129.00 281.00 132.00 281.00 135.00
C 284.00 135.00 287.00 135.00 290.00 135.00
C 290.00 139.00 290.00 143.00 290.00 147.00
C 287.00 147.00 284.00 147.00 281.00 147.00
C 280.72 153.69 278.96 168.41 290.00 163.00
C 294.95 175.31 281.77 179.78 273.31 173.69 C 264.84 167.61 269.19 155.82 268.00 147.00
C 259.56 149.56 262.40 140.07 262.00 135.00
C 271.93 136.89 268.53 120.62 281.00 126.00
M 358.00 149.00 
C 354.63 146.13 345.70 141.68 344.00 148.00
C 355.08 147.90 371.05 159.33 362.69 170.69 C 354.34 182.06 337.40 176.75 332.00 167.00
C 335.37 166.10 337.11 162.62 340.00 161.00
C 342.66 165.59 347.96 166.65 353.00 166.00
C 350.72 157.11 335.21 161.66 333.22 150.78 C 331.23 139.89 341.22 133.22 351.00 134.00 C 360.78 134.79 369.63 142.87 358.00 149.00
M 247.00 135.00 
C 260.79 138.41 265.18 161.69 254.75 170.75 C 244.32 179.81 222.86 178.59 219.08 161.92 C 215.29 145.26 229.09 130.56 247.00 135.00
M 328.00 135.00 
C 331.35 148.16 317.64 154.36 312.00 164.00
C 317.33 164.00 322.67 164.00 328.00 164.00
C 328.00 167.67 328.00 171.33 328.00 175.00
C 317.00 175.00 306.00 175.00 295.00 175.00
C 292.29 162.28 305.89 156.14 312.00 147.00
C 306.67 147.00 301.33 147.00 296.00 147.00
C 296.00 143.00 296.00 139.00 296.00 135.00
C 306.67 135.00 317.33 135.00 328.00 135.00
M 407.00 147.00 
C 403.11 149.04 399.17 150.78 395.00 152.00
C 392.51 143.09 380.24 146.94 380.22 155.22 C 380.21 163.50 392.48 168.20 395.00 159.00
C 399.33 159.30 402.60 162.94 407.00 163.00
C 399.78 184.04 368.52 178.35 368.00 156.00 C 367.48 133.65 398.18 126.20 407.00 147.00 Z"/>
</g>
<g fill="None" fill-opacity="0.0" stroke="#FEFEFE" stroke-opacity="0.85" stroke-width="0.3"><path d="
M 281.00 20.00 
C 271.66 18.02 267.71 32.26 277.00 35.00 C 286.28 37.73 289.88 21.88 281.00 20.00
M 279.00 23.00 
C 283.72 23.02 284.19 31.79 278.78 31.78 C 273.36 31.76 274.39 22.98 279.00 23.00 Z"/>
</g>
<g fill="None" fill-opacity="0.0" stroke="#FEFEFE" stroke-opacity="0.87" stroke-width="0.3"><path d="
M 323.00 20.00 
C 313.76 17.66 309.20 31.33 318.33 34.67 C 327.46 38.01 332.07 22.30 323.00 20.00
M 321.00 23.00 
C 325.22 23.34 326.02 31.58 320.77 31.77 C 315.52 31.96 315.94 22.59 321.00 23.00 Z"/>
</g>
<g fill="None" fill-opacity="0.0" stroke="#3DCFB6" stroke-opacity="0.87" stroke-width="0.3"><path d="
M 106.00 152.00 
C 100.21 151.53 92.61 152.63 87.00 152.00 C 81.39 151.37 72.96 153.21 68.00 152.00 C 63.04 150.79 51.74 154.92 49.00 151.00
C 49.00 117.00 49.00 83.00 49.00 49.00
C 57.33 49.00 65.67 49.00 74.00 49.00
C 72.46 71.03 72.65 104.33 93.92 116.08 C 115.19 127.82 142.97 124.16 155.69 102.69 C 168.42 81.23 160.97 47.92 163.00 23.00
C 116.33 23.00 69.67 23.00 23.00 23.00
C 23.04 32.89 22.95 43.15 23.00 53.00 C 23.05 62.85 22.90 72.19 23.00 82.00 C 23.10 91.81 22.79 102.25 23.00 112.00 C 23.21 121.75 22.52 131.37 23.00 141.00 C 23.48 150.63 21.93 160.52 23.00 170.00 C 24.08 179.48 39.74 173.89 48.00 175.00 C 56.26 176.11 68.07 174.42 77.00 175.00 C 85.93 175.58 96.88 174.56 106.00 175.00
C 103.30 169.22 109.60 157.15 106.00 152.00
M 160.00 26.00 
C 160.13 36.64 159.83 49.60 160.00 60.00 C 160.17 70.40 160.03 82.06 157.02 91.02 C 154.02 99.99 150.39 105.75 143.25 111.25 C 136.11 116.75 125.04 119.85 116.00 119.00 C 106.96 118.15 98.18 116.02 91.30 109.70 C 84.43 103.37 81.16 97.69 79.02 87.98 C 76.89 78.26 75.88 66.61 77.00 55.00 C 78.12 43.39 62.66 44.65 52.00 46.00 C 41.34 47.35 47.26 63.53 46.00 74.00 C 44.74 84.47 47.31 97.26 46.00 109.00 C 44.69 120.74 48.28 129.70 46.00 143.00 C 43.72 156.30 56.08 156.21 68.00 155.00 C 79.92 153.79 91.15 155.91 103.00 155.00
C 103.00 160.67 103.00 166.33 103.00 172.00
C 77.33 172.00 51.67 172.00 26.00 172.00
C 26.00 123.33 26.00 74.67 26.00 26.00
C 70.67 26.00 115.33 26.00 160.00 26.00 Z"/>
</g>
<g fill="None" fill-opacity="0.0" stroke="#000000" stroke-opacity="0.00" stroke-width="0.3"><path d="
M 279.00 23.00 
C 274.39 22.98 273.36 31.76 278.78 31.78 C 284.19 31.79 283.72 23.02 279.00 23.00 Z"/>
</g>
<g fill="None" fill-opacity="0.0" stroke="#000000" stroke-opacity="0.00" stroke-width="0.3"><path d="
M 321.00 23.00 
C 315.94 22.59 315.52 31.96 320.77 31.77 C 326.02 31.58 325.22 23.34 321.00 23.00 Z"/>
</g>
<g fill="None" fill-opacity="0.0" stroke="#FEFEFE" stroke-opacity="0.88" stroke-width="0.3"><path d="
M 195.00 64.00 
C 212.10 68.20 227.60 55.11 222.32 37.68 C 217.04 20.24 196.93 24.27 182.00 24.00
C 182.00 42.33 182.00 60.67 182.00 79.00
C 186.33 79.00 190.67 79.00 195.00 79.00
C 195.00 74.00 195.00 69.00 195.00 64.00
M 192.00 76.00 
C 180.46 77.82 185.93 63.22 185.00 55.00 C 184.07 46.78 185.70 35.50 185.00 27.00
C 192.86 26.95 204.14 26.38 211.02 28.98 C 217.91 31.57 221.91 41.61 220.00 48.00 C 218.09 54.39 213.62 61.84 204.99 60.99 C 196.36 60.14 187.30 63.58 192.00 76.00 Z"/>
</g>
<g fill="None" fill-opacity="0.0" stroke="#FEFEFE" stroke-opacity="0.94" stroke-width="0.3"><path d="
M 240.00 24.00 
C 236.00 24.00 232.00 24.00 228.00 24.00
C 228.00 42.33 228.00 60.67 228.00 79.00
C 232.00 79.00 236.00 79.00 240.00 79.00
C 241.74 71.51 234.95 51.76 247.00 51.00 C 259.05 50.25 250.35 72.21 253.00 79.00
C 257.00 79.00 261.00 79.00 265.00 79.00
C 264.23 68.22 266.48 56.33 263.97 46.03 C 261.47 35.73 247.03 38.34 240.00 42.00
C 240.00 36.00 240.00 30.00 240.00 24.00
M 237.00 27.00 
C 235.38 33.46 236.52 48.29 244.22 44.22 C 251.92 40.16 259.55 41.03 261.78 49.22 C 264.00 57.42 260.57 67.61 262.00 76.00
C 246.20 76.65 265.95 50.20 249.99 48.01 C 234.04 45.82 236.40 64.92 237.00 76.00
C 227.24 77.00 230.82 59.60 231.00 52.00 C 231.18 44.40 226.89 26.05 237.00 27.00 Z"/>
</g>
<g fill="None" fill-opacity="0.0" stroke="#FEFEFE" stroke-opacity="0.93" stroke-width="0.3"><path d="
M 305.00 24.00 
C 301.00 24.00 297.00 24.00 293.00 24.00
C 293.70 33.04 292.06 43.06 293.00 52.00 C 293.94 60.94 289.82 69.61 296.25 76.75 C 302.68 83.89 313.42 78.43 309.00 68.00
C 301.82 64.90 305.77 55.13 305.00 48.00 C 304.23 40.87 305.58 31.35 305.00 24.00
M 302.00 27.00 
C 301.13 36.03 303.16 44.97 302.00 54.00 C 300.84 63.03 304.37 69.12 306.00 77.00
C 299.26 77.19 295.12 71.57 296.00 65.00 C 296.88 58.43 295.15 49.44 296.00 43.00 C 296.85 36.56 292.35 25.18 302.00 27.00 Z"/>
</g>
<g fill="None" fill-opacity="0.0" stroke="#000000" stroke-opacity="0.00" stroke-width="0.3"><path d="
M 160.00 26.00 
C 115.33 26.00 70.67 26.00 26.00 26.00
C 26.00 74.67 26.00 123.33 26.00 172.00
C 51.67 172.00 77.33 172.00 103.00 172.00
C 103.00 166.33 103.00 160.67 103.00 155.00
C 91.15 155.91 79.92 153.79 68.00 155.00 C 56.08 156.21 43.72 156.30 46.00 143.00 C 48.28 129.70 44.69 120.74 46.00 109.00 C 47.31 97.26 44.74 84.47 46.00 74.00 C 47.26 63.53 41.34 47.35 52.00 46.00 C 62.66 44.65 78.12 43.39 77.00 55.00 C 75.88 66.61 76.89 78.26 79.02 87.98 C 81.16 97.69 84.43 103.37 91.30 109.70 C 98.18 116.02 106.96 118.15 116.00 119.00 C 125.04 119.85 136.11 116.75 143.25 111.25 C 150.39 105.75 154.02 99.99 157.02 91.02 C 160.03 82.06 160.17 70.40 160.00 60.00 C 159.83 49.60 160.13 36.64 160.00 26.00
M 142.00 46.00 
C 146.00 48.83 141.85 60.20 143.00 65.00 C 144.15 69.80 143.05 78.76 141.68 83.68 C 140.31 88.59 137.20 91.64 132.77 94.77 C 128.34 97.90 121.75 98.01 116.00 98.00 C 110.25 97.99 104.92 96.37 100.75 92.25 C 96.59 88.12 94.76 84.91 94.02 78.98 C 93.29 73.04 94.87 65.13 94.00 59.00 C 93.13 52.87 93.55 44.09 101.00 46.00 C 108.46 47.91 114.65 43.89 121.00 46.00 C 127.35 48.11 136.91 42.40 142.00 46.00 Z"/>
</g>
<g fill="None" fill-opacity="0.0" stroke="#000000" stroke-opacity="0.00" stroke-width="0.3"><path d="
M 192.00 76.00 
C 187.30 63.58 196.36 60.14 204.99 60.99 C 213.62 61.84 218.09 54.39 220.00 48.00 C 221.91 41.61 217.91 31.57 211.02 28.98 C 204.14 26.38 192.86 26.95 185.00 27.00
C 185.70 35.50 184.07 46.78 185.00 55.00 C 185.93 63.22 180.46 77.82 192.00 76.00
M 206.00 33.00 
C 212.98 34.62 216.94 46.79 211.69 51.69 C 206.45 56.60 192.12 59.52 192.00 49.00 C 191.88 38.48 191.33 29.59 206.00 33.00 Z"/>
</g>
<g fill="None" fill-opacity="0.0" stroke="#000000" stroke-opacity="0.00" stroke-width="0.3"><path d="
M 237.00 27.00 
C 226.89 26.05 231.18 44.40 231.00 52.00 C 230.82 59.60 227.24 77.00 237.00 76.00
C 236.40 64.92 234.04 45.82 249.99 48.01 C 265.95 50.20 246.20 76.65 262.00 76.00
C 260.57 67.61 264.00 57.42 261.78 49.22 C 259.55 41.03 251.92 40.16 244.22 44.22 C 236.52 48.29 235.38 33.46 237.00 27.00 Z"/>
</g>
<g fill="None" fill-opacity="0.0" stroke="#000000" stroke-opacity="0.00" stroke-width="0.3"><path d="
M 302.00 27.00 
C 292.35 25.18 296.85 36.56 296.00 43.00 C 295.15 49.44 296.88 58.43 296.00 65.00 C 295.12 71.57 299.26 77.19 306.00 77.00
C 304.37 69.12 300.84 63.03 302.00 54.00 C 303.16 44.97 301.13 36.03 302.00 27.00 Z"/>
</g>
<g fill="None" fill-opacity="0.0" stroke="#FEFEFE" stroke-opacity="0.90" stroke-width="0.3"><path d="
M 206.00 33.00 
C 191.33 29.59 191.88 38.48 192.00 49.00 C 192.12 59.52 206.45 56.60 211.69 51.69 C 216.94 46.79 212.98 34.62 206.00 33.00
M 195.00 52.00 
C 195.00 46.67 195.00 41.33 195.00 36.00
C 200.85 35.50 210.77 36.05 210.93 44.07 C 211.08 52.10 201.14 53.03 195.00 52.00 Z"/>
</g>
<g fill="None" fill-opacity="0.0" stroke="#000000" stroke-opacity="0.00" stroke-width="0.3"><path d="
M 195.00 52.00 
C 201.14 53.03 211.08 52.10 210.93 44.07 C 210.77 36.05 200.85 35.50 195.00 36.00
C 195.00 41.33 195.00 46.67 195.00 52.00 Z"/>
</g>
<g fill="None" fill-opacity="0.0" stroke="#FEFEFE" stroke-opacity="0.95" stroke-width="0.3"><path d="
M 285.00 39.00 
C 281.00 39.00 277.00 39.00 273.00 39.00
C 273.00 52.33 273.00 65.67 273.00 79.00
C 277.00 79.00 281.00 79.00 285.00 79.00
C 285.00 65.67 285.00 52.33 285.00 39.00
M 282.00 42.00 
C 282.00 53.33 282.00 64.67 282.00 76.00
C 272.87 78.32 275.99 64.87 276.00 59.00 C 276.01 53.13 272.80 39.72 282.00 42.00 Z"/>
</g>
<g fill="None" fill-opacity="0.0" stroke="#FEFEFE" stroke-opacity="0.85" stroke-width="0.3"><path d="
M 327.00 39.00 
C 322.67 39.00 318.33 39.00 314.00 39.00
C 314.00 52.33 314.00 65.67 314.00 79.00
C 318.33 79.00 322.67 79.00 327.00 79.00
C 327.00 65.67 327.00 52.33 327.00 39.00
M 324.00 42.00 
C 324.00 53.33 324.00 64.67 324.00 76.00
C 313.79 79.00 316.99 65.40 317.00 59.00 C 317.01 52.60 313.74 39.04 324.00 42.00 Z"/>
</g>
<g fill="None" fill-opacity="0.0" stroke="#FEFEFE" stroke-opacity="0.91" stroke-width="0.3"><path d="
M 345.00 43.00 
C 345.83 37.09 338.50 39.44 335.00 39.00
C 335.00 57.67 335.00 76.33 335.00 95.00
C 339.00 95.00 343.00 95.00 347.00 95.00
C 347.00 89.33 347.00 83.67 347.00 78.00
C 362.76 86.45 376.31 72.47 375.00 57.00 C 373.68 41.54 357.90 32.90 345.00 43.00
M 343.00 46.00 
C 349.50 44.42 358.39 39.55 364.74 44.26 C 371.09 48.97 373.76 58.74 371.07 65.07 C 368.39 71.41 363.61 81.00 354.00 77.00 C 344.38 73.00 341.76 81.30 344.00 92.00
C 333.50 92.65 339.05 78.14 338.00 70.00 C 336.95 61.86 338.79 50.44 338.00 42.00
C 341.45 40.92 342.07 43.50 343.00 46.00 Z"/>
</g>
<g fill="None" fill-opacity="0.0" stroke="#FEFEFE" stroke-opacity="0.90" stroke-width="0.3"><path d="
M 390.00 43.00 
C 391.44 36.64 383.63 39.68 380.00 39.00
C 380.00 57.67 380.00 76.33 380.00 95.00
C 384.00 95.00 388.00 95.00 392.00 95.00
C 392.00 89.33 392.00 83.67 392.00 78.00
C 408.34 86.18 421.23 72.93 420.00 57.00 C 418.77 41.07 403.29 33.26 390.00 43.00
M 388.00 46.00 
C 394.95 44.21 402.94 40.11 409.74 44.26 C 416.54 48.40 418.65 58.73 416.22 65.22 C 413.79 71.71 408.56 80.89 399.00 77.00 C 389.44 73.11 386.73 81.17 389.00 92.00
C 378.50 92.65 384.05 78.14 383.00 70.00 C 381.95 61.86 383.79 50.44 383.00 42.00
C 386.45 40.92 387.07 43.50 388.00 46.00 Z"/>
</g>
<g fill="None" fill-opacity="0.0" stroke="#000000" stroke-opacity="0.00" stroke-width="0.3"><path d="
M 282.00 42.00 
C 272.80 39.72 276.01 53.13 276.00 59.00 C 275.99 64.87 272.87 78.32 282.00 76.00
C 282.00 64.67 282.00 53.33 282.00 42.00 Z"/>
</g>
<g fill="None" fill-opacity="0.0" stroke="#000000" stroke-opacity="0.00" stroke-width="0.3"><path d="
M 324.00 42.00 
C 313.74 39.04 317.01 52.60 317.00 59.00 C 316.99 65.40 313.79 79.00 324.00 76.00
C 324.00 64.67 324.00 53.33 324.00 42.00 Z"/>
</g>
<g fill="None" fill-opacity="0.0" stroke="#000000" stroke-opacity="0.00" stroke-width="0.3"><path d="
M 343.00 46.00 
C 342.07 43.50 341.45 40.92 338.00 42.00
C 338.79 50.44 336.95 61.86 338.00 70.00 C 339.05 78.14 333.50 92.65 344.00 92.00
C 341.76 81.30 344.38 73.00 354.00 77.00 C 363.61 81.00 368.39 71.41 371.07 65.07 C 373.76 58.74 371.09 48.97 364.74 44.26 C 358.39 39.55 349.50 44.42 343.00 46.00
M 358.00 47.00 
C 371.15 49.81 366.75 75.84 352.33 71.67 C 337.91 67.50 342.43 43.67 358.00 47.00 Z"/>
</g>
<g fill="None" fill-opacity="0.0" stroke="#000000" stroke-opacity="0.00" stroke-width="0.3"><path d="
M 388.00 46.00 
C 387.07 43.50 386.45 40.92 383.00 42.00
C 383.79 50.44 381.95 61.86 383.00 70.00 C 384.05 78.14 378.50 92.65 389.00 92.00
C 386.73 81.17 389.44 73.11 399.00 77.00 C 408.56 80.89 413.79 71.71 416.22 65.22 C 418.65 58.73 416.54 48.40 409.74 44.26 C 402.94 40.11 394.95 44.21 388.00 46.00
M 404.00 47.00 
C 417.15 50.99 411.00 76.21 396.78 71.22 C 382.56 66.23 388.93 42.43 404.00 47.00 Z"/>
</g>
<g fill="None" fill-opacity="0.0" stroke="#3CCEB5" stroke-opacity="0.86" stroke-width="0.3"><path d="
M 142.00 46.00 
C 136.91 42.40 127.35 48.11 121.00 46.00 C 114.65 43.89 108.46 47.91 101.00 46.00 C 93.55 44.09 93.13 52.87 94.00 59.00 C 94.87 65.13 93.29 73.04 94.02 78.98 C 94.76 84.91 96.59 88.12 100.75 92.25 C 104.92 96.37 110.25 97.99 116.00 98.00 C 121.75 98.01 128.34 97.90 132.77 94.77 C 137.20 91.64 140.31 88.59 141.68 83.68 C 143.05 78.76 144.15 69.80 143.00 65.00 C 141.85 60.20 146.00 48.83 142.00 46.00
M 140.00 49.00 
C 140.38 67.37 143.95 94.44 119.00 95.00 C 94.05 95.56 95.70 67.68 97.00 49.00
C 111.33 49.00 125.67 49.00 140.00 49.00 Z"/>
</g>
<g fill="None" fill-opacity="0.0" stroke="#FEFEFE" stroke-opacity="0.91" stroke-width="0.3"><path d="
M 358.00 47.00 
C 342.43 43.67 337.91 67.50 352.33 71.67 C 366.75 75.84 371.15 49.81 358.00 47.00
M 356.00 50.00 
C 364.86 50.99 364.74 69.72 354.31 68.65 C 343.87 67.57 344.73 48.74 356.00 50.00 Z"/>
</g>
<g fill="None" fill-opacity="0.0" stroke="#FEFEFE" stroke-opacity="0.92" stroke-width="0.3"><path d="
M 404.00 47.00 
C 388.93 42.43 382.56 66.23 396.78 71.22 C 411.00 76.21 417.15 50.99 404.00 47.00
M 402.00 50.00 
C 411.09 51.99 409.13 70.24 398.77 68.21 C 388.42 66.18 391.00 47.59 402.00 50.00 Z"/>
</g>
<g fill="None" fill-opacity="0.0" stroke="#000000" stroke-opacity="0.00" stroke-width="0.3"><path d="
M 140.00 49.00 
C 125.67 49.00 111.33 49.00 97.00 49.00
C 95.70 67.68 94.05 95.56 119.00 95.00 C 143.95 94.44 140.38 67.37 140.00 49.00 Z"/>
</g>
<g fill="None" fill-opacity="0.0" stroke="#000000" stroke-opacity="0.00" stroke-width="0.3"><path d="
M 356.00 50.00 
C 344.73 48.74 343.87 67.57 354.31 68.65 C 364.74 69.72 364.86 50.99 356.00 50.00 Z"/>
</g>
<g fill="None" fill-opacity="0.0" stroke="#000000" stroke-opacity="0.00" stroke-width="0.3"><path d="
M 402.00 50.00 
C 391.00 47.59 388.42 66.18 398.77 68.21 C 409.13 70.24 411.09 51.99 402.00 50.00 Z"/>
</g>
<g fill="None" fill-opacity="0.0" stroke="#FEFEFE" stroke-opacity="0.85" stroke-width="0.3"><path d="
M 234.00 117.00 
C 225.23 114.51 220.93 127.33 229.33 130.67 C 237.73 134.01 241.67 119.18 234.00 117.00
M 232.00 120.00 
C 235.40 120.50 235.83 127.85 231.25 127.59 C 226.68 127.34 227.47 119.33 232.00 120.00 Z"/>
</g>
<g fill="None" fill-opacity="0.0" stroke="#FEFEFE" stroke-opacity="0.85" stroke-width="0.3"><path d="
M 250.00 117.00 
C 241.11 114.75 237.17 127.15 245.33 130.67 C 253.49 134.18 258.01 119.03 250.00 117.00
M 248.00 120.00 
C 252.04 120.49 251.47 127.93 247.25 127.59 C 243.04 127.26 243.38 119.44 248.00 120.00 Z"/>
</g>
<g fill="None" fill-opacity="0.0" stroke="#FEFEFE" stroke-opacity="0.88" stroke-width="0.3"><path d="
M 195.00 120.00 
C 190.67 120.00 186.33 120.00 182.00 120.00
C 182.00 138.33 182.00 156.67 182.00 175.00
C 193.33 175.00 204.67 175.00 216.00 175.00
C 216.00 171.00 216.00 167.00 216.00 163.00
C 209.00 163.00 202.00 163.00 195.00 163.00
C 195.00 148.67 195.00 134.33 195.00 120.00
M 192.00 123.00 
C 190.26 135.32 194.31 142.13 192.00 155.00 C 189.69 167.87 202.10 167.20 213.00 166.00
C 215.24 173.91 207.32 171.93 202.00 172.00 C 196.68 172.07 190.41 171.95 185.00 172.00
C 185.71 163.49 184.06 152.24 185.00 144.00 C 185.94 135.76 180.42 121.22 192.00 123.00 Z"/>
</g>
<g fill="None" fill-opacity="0.0" stroke="#000000" stroke-opacity="0.00" stroke-width="0.3"><path d="
M 232.00 120.00 
C 227.47 119.33 226.68 127.34 231.25 127.59 C 235.83 127.85 235.40 120.50 232.00 120.00 Z"/>
</g>
<g fill="None" fill-opacity="0.0" stroke="#000000" stroke-opacity="0.00" stroke-width="0.3"><path d="
M 248.00 120.00 
C 243.38 119.44 243.04 127.26 247.25 127.59 C 251.47 127.93 252.04 120.49 248.00 120.00 Z"/>
</g>
<g fill="None" fill-opacity="0.0" stroke="#FEFEFE" stroke-opacity="0.94" stroke-width="0.3"><path d="
M 423.00 120.00 
C 419.00 120.00 415.00 120.00 411.00 120.00
C 411.00 138.33 411.00 156.67 411.00 175.00
C 415.00 175.00 419.00 175.00 423.00 175.00
C 424.74 167.51 417.95 147.75 430.00 147.00 C 442.05 146.25 433.35 168.21 436.00 175.00
C 440.00 175.00 444.00 175.00 448.00 175.00
C 447.23 164.22 449.48 152.33 446.97 142.03 C 444.47 131.73 430.03 134.34 423.00 138.00
C 423.00 132.00 423.00 126.00 423.00 120.00
M 420.00 123.00 
C 418.38 129.46 419.52 144.29 427.22 140.22 C 434.92 136.16 442.55 137.03 444.78 145.22 C 447.00 153.42 443.57 163.61 445.00 172.00
C 429.20 172.65 448.94 146.20 432.99 144.01 C 417.04 141.82 419.40 160.92 420.00 172.00
C 410.24 173.00 413.82 155.60 414.00 148.00 C 414.18 140.40 409.89 122.06 420.00 123.00 Z"/>
</g>
<g fill="None" fill-opacity="0.0" stroke="#000000" stroke-opacity="0.00" stroke-width="0.3"><path d="
M 192.00 123.00 
C 180.42 121.22 185.94 135.76 185.00 144.00 C 184.06 152.24 185.71 163.49 185.00 172.00
C 190.41 171.95 196.68 172.07 202.00 172.00 C 207.32 171.93 215.24 173.91 213.00 166.00
C 202.10 167.20 189.69 167.87 192.00 155.00 C 194.31 142.13 190.26 135.32 192.00 123.00 Z"/>
</g>
<g fill="None" fill-opacity="0.0" stroke="#000000" stroke-opacity="0.00" stroke-width="0.3"><path d="
M 420.00 123.00 
C 409.89 122.06 414.18 140.40 414.00 148.00 C 413.82 155.60 410.24 173.00 420.00 172.00
C 419.40 160.92 417.04 141.82 432.99 144.01 C 448.94 146.20 429.20 172.65 445.00 172.00
C 443.57 163.61 447.00 153.42 444.78 145.22 C 442.55 137.03 434.92 136.16 427.22 140.22 C 419.52 144.29 418.38 129.46 420.00 123.00 Z"/>
</g>
<g fill="None" fill-opacity="0.0" stroke="#FEFEFE" stroke-opacity="0.85" stroke-width="0.3"><path d="
M 281.00 126.00 
C 268.53 120.62 271.93 136.89 262.00 135.00
C 262.40 140.07 259.56 149.56 268.00 147.00
C 269.19 155.82 264.84 167.61 273.31 173.69 C 281.77 179.78 294.95 175.31 290.00 163.00
C 278.96 168.41 280.72 153.69 281.00 147.00
C 284.00 147.00 287.00 147.00 290.00 147.00
C 290.00 143.00 290.00 139.00 290.00 135.00
C 287.00 135.00 284.00 135.00 281.00 135.00
C 281.00 132.00 281.00 129.00 281.00 126.00
M 278.00 129.00 
C 276.07 135.86 280.15 139.88 287.00 138.00
C 288.09 146.01 276.15 142.93 278.00 152.00 C 279.85 161.07 275.39 167.61 287.00 167.00
C 287.86 177.41 274.61 172.57 272.08 165.92 C 269.54 159.28 275.43 143.25 265.00 144.00
C 262.21 137.45 268.90 139.22 271.25 136.25 C 273.59 133.27 271.58 126.87 278.00 129.00 Z"/>
</g>
<g fill="None" fill-opacity="0.0" stroke="#000000" stroke-opacity="0.00" stroke-width="0.3"><path d="
M 278.00 129.00 
C 271.58 126.87 273.59 133.27 271.25 136.25 C 268.90 139.22 262.21 137.45 265.00 144.00
C 275.43 143.25 269.54 159.28 272.08 165.92 C 274.61 172.57 287.86 177.41 287.00 167.00
C 275.39 167.61 279.85 161.07 278.00 152.00 C 276.15 142.93 288.09 146.01 287.00 138.00
C 280.15 139.88 276.07 135.86 278.00 129.00 Z"/>
</g>
<g fill="None" fill-opacity="0.0" stroke="#FEFEFE" stroke-opacity="0.88" stroke-width="0.3"><path d="
M 358.00 149.00 
C 369.63 142.87 360.78 134.79 351.00 134.00 C 341.22 133.22 331.23 139.89 333.22 150.78 C 335.21 161.66 350.72 157.11 353.00 166.00
C 347.96 166.65 342.66 165.59 340.00 161.00
C 337.11 162.62 335.37 166.10 332.00 167.00
C 337.40 176.75 354.34 182.06 362.69 170.69 C 371.05 159.33 355.08 147.90 344.00 148.00
C 345.70 141.68 354.63 146.13 358.00 149.00
M 360.00 141.00 
C 357.66 148.38 344.25 135.79 341.25 144.25 C 338.25 152.71 350.47 153.30 356.22 155.78 C 361.98 158.25 363.73 167.53 356.92 170.92 C 350.11 174.31 341.90 173.99 337.00 168.00
C 340.49 163.60 352.97 175.20 355.92 166.92 C 358.86 158.63 347.59 157.19 341.78 155.22 C 335.97 153.26 334.30 143.38 340.75 139.75 C 347.21 136.12 353.80 137.18 360.00 141.00 Z"/>
</g>
<g fill="None" fill-opacity="0.0" stroke="#FEFEFE" stroke-opacity="0.90" stroke-width="0.3"><path d="
M 247.00 135.00 
C 229.09 130.56 215.29 145.26 219.08 161.92 C 222.86 178.59 244.32 179.81 254.75 170.75 C 265.18 161.69 260.79 138.41 247.00 135.00
M 245.00 138.00 
C 266.28 143.27 256.82 179.30 234.78 172.22 C 212.74 165.14 222.16 132.34 245.00 138.00 Z"/>
</g>
<g fill="None" fill-opacity="0.0" stroke="#FEFEFE" stroke-opacity="0.88" stroke-width="0.3"><path d="
M 328.00 135.00 
C 317.33 135.00 306.67 135.00 296.00 135.00
C 296.00 139.00 296.00 143.00 296.00 147.00
C 301.33 147.00 306.67 147.00 312.00 147.00
C 305.89 156.14 292.29 162.28 295.00 175.00
C 306.00 175.00 317.00 175.00 328.00 175.00
C 328.00 171.33 328.00 167.67 328.00 164.00
C 322.67 164.00 317.33 164.00 312.00 164.00
C 317.64 154.36 331.35 148.16 328.00 135.00
M 325.00 138.00 
C 323.42 147.60 321.06 148.56 313.25 156.25 C 305.44 163.94 313.61 170.63 325.00 167.00
C 326.72 174.19 318.82 171.73 314.00 172.00 C 309.18 172.27 302.95 171.80 298.00 172.00
C 300.94 163.16 302.13 161.70 310.25 154.25 C 318.36 146.80 310.62 140.68 299.00 144.00
C 298.34 132.14 317.03 140.50 325.00 138.00 Z"/>
</g>
<g fill="None" fill-opacity="0.0" stroke="#FEFEFE" stroke-opacity="0.89" stroke-width="0.3"><path d="
M 407.00 147.00 
C 398.18 126.20 367.48 133.65 368.00 156.00 C 368.52 178.35 399.78 184.04 407.00 163.00
C 402.60 162.94 399.33 159.30 395.00 159.00
C 392.48 168.20 380.21 163.50 380.22 155.22 C 380.24 146.94 392.51 143.09 395.00 152.00
C 399.17 150.78 403.11 149.04 407.00 147.00
M 402.00 146.00 
C 396.34 148.12 385.55 139.77 380.25 146.25 C 374.95 152.74 376.08 160.28 382.25 165.75 C 388.41 171.23 397.31 160.42 402.00 166.00
C 391.73 179.94 370.97 171.31 371.00 155.00 C 371.04 138.69 394.26 130.83 402.00 146.00 Z"/>
</g>
<g fill="None" fill-opacity="0.0" stroke="#000000" stroke-opacity="0.00" stroke-width="0.3"><path d="
M 360.00 141.00 
C 353.80 137.18 347.21 136.12 340.75 139.75 C 334.30 143.38 335.97 153.26 341.78 155.22 C 347.59 157.19 358.86 158.63 355.92 166.92 C 352.97 175.20 340.49 163.60 337.00 168.00
C 341.90 173.99 350.11 174.31 356.92 170.92 C 363.73 167.53 361.98 158.25 356.22 155.78 C 350.47 153.30 338.25 152.71 341.25 144.25 C 344.25 135.79 357.66 148.38 360.00 141.00 Z"/>
</g>
<g fill="None" fill-opacity="0.0" stroke="#000000" stroke-opacity="0.00" stroke-width="0.3"><path d="
M 245.00 138.00 
C 222.16 132.34 212.74 165.14 234.78 172.22 C 256.82 179.30 266.28 143.27 245.00 138.00
M 245.00 144.00 
C 258.93 148.23 247.92 174.82 234.33 166.67 C 220.74 158.52 229.89 139.41 245.00 144.00 Z"/>
</g>
<g fill="None" fill-opacity="0.0" stroke="#000000" stroke-opacity="0.00" stroke-width="0.3"><path d="
M 325.00 138.00 
C 317.03 140.50 298.34 132.14 299.00 144.00
C 310.62 140.68 318.36 146.80 310.25 154.25 C 302.13 161.70 300.94 163.16 298.00 172.00
C 302.95 171.80 309.18 172.27 314.00 172.00 C 318.82 171.73 326.72 174.19 325.00 167.00
C 313.61 170.63 305.44 163.94 313.25 156.25 C 321.06 148.56 323.42 147.60 325.00 138.00 Z"/>
</g>
<g fill="None" fill-opacity="0.0" stroke="#000000" stroke-opacity="0.00" stroke-width="0.3"><path d="
M 402.00 146.00 
C 394.26 130.83 371.04 138.69 371.00 155.00 C 370.97 171.31 391.73 179.94 402.00 166.00
C 397.31 160.42 388.41 171.23 382.25 165.75 C 376.08 160.28 374.95 152.74 380.25 146.25 C 385.55 139.77 396.34 148.12 402.00 146.00 Z"/>
</g>
<g fill="None" fill-opacity="0.0" stroke="#FEFEFE" stroke-opacity="0.92" stroke-width="0.3"><path d="
M 245.00 144.00 
C 229.89 139.41 220.74 158.52 234.33 166.67 C 247.92 174.82 258.93 148.23 245.00 144.00
M 243.00 147.00 
C 252.86 150.11 246.35 168.37 236.33 163.67 C 226.30 158.97 232.08 143.55 243.00 147.00 Z"/>
</g>
<g fill="None" fill-opacity="0.0" stroke="#000000" stroke-opacity="0.00" stroke-width="0.3"><path d="
M 243.00 147.00 
C 232.08 143.55 226.30 158.97 236.33 163.67 C 246.35 168.37 252.86 150.11 243.00 147.00 Z"/>
</g>
<g fill="None" fill-opacity="0.0" stroke="#00FF80" stroke-opacity="0.01" stroke-width="0.3"><path d="
M 106.00 152.00 
C 103.26 148.08 91.96 152.21 87.00 151.00 C 82.04 149.79 73.62 151.63 68.00 151.00 C 62.38 150.37 54.79 151.47 49.00 151.00
C 51.74 154.92 63.04 150.79 68.00 152.00 C 72.96 153.21 81.39 151.37 87.00 152.00 C 92.61 152.63 100.21 151.53 106.00 152.00 Z"/>
</g>
<g fill="#000000" fill-opacity="0.00" stroke="None">
<path d="
M 0.00 204.00 
L 480.00 204.00
L 480.00 0.00
L 0.00 0.00
L 0.00 204.00
M 281.00 20.00 
C 289.88 21.88 286.28 37.73 277.00 35.00 C 267.71 32.26 271.66 18.02 281.00 20.00
M 323.00 20.00 
C 332.07 22.30 327.46 38.01 318.33 34.67 C 309.20 31.33 313.76 17.66 323.00 20.00
M 49.00 151.00 
C 54.79 151.47 62.38 150.37 68.00 151.00 C 73.62 151.63 82.04 149.79 87.00 151.00 C 91.96 152.21 103.26 148.08 106.00 152.00
C 109.60 157.15 103.30 169.22 106.00 175.00
C 96.88 174.56 85.93 175.58 77.00 175.00 C 68.07 174.42 56.26 176.11 48.00 175.00 C 39.74 173.89 24.08 179.48 23.00 170.00 C 21.93 160.52 23.48 150.63 23.00 141.00 C 22.52 131.37 23.21 121.75 23.00 112.00 C 22.79 102.25 23.10 91.81 23.00 82.00 C 22.90 72.19 23.05 62.85 23.00 53.00 C 22.95 43.15 23.04 32.89 23.00 23.00
C 69.67 23.00 116.33 23.00 163.00 23.00
C 160.97 47.92 168.42 81.23 155.69 102.69 C 142.97 124.16 115.19 127.82 93.92 116.08 C 72.65 104.33 72.46 71.03 74.00 49.00
C 65.67 49.00 57.33 49.00 49.00 49.00
C 49.00 83.00 49.00 117.00 49.00 151.00
M 195.00 64.00 
C 195.00 69.00 195.00 74.00 195.00 79.00
C 190.67 79.00 186.33 79.00 182.00 79.00
C 182.00 60.67 182.00 42.33 182.00 24.00
C 196.93 24.27 217.04 20.24 222.32 37.68 C 227.60 55.11 212.10 68.20 195.00 64.00
M 240.00 24.00 
C 240.00 30.00 240.00 36.00 240.00 42.00
C 247.03 38.34 261.47 35.73 263.97 46.03 C 266.48 56.33 264.23 68.22 265.00 79.00
C 261.00 79.00 257.00 79.00 253.00 79.00
C 250.35 72.21 259.05 50.25 247.00 51.00 C 234.95 51.76 241.74 71.51 240.00 79.00
C 236.00 79.00 232.00 79.00 228.00 79.00
C 228.00 60.67 228.00 42.33 228.00 24.00
C 232.00 24.00 236.00 24.00 240.00 24.00
M 305.00 24.00 
C 305.58 31.35 304.23 40.87 305.00 48.00 C 305.77 55.13 301.82 64.90 309.00 68.00
C 313.42 78.43 302.68 83.89 296.25 76.75 C 289.82 69.61 293.94 60.94 293.00 52.00 C 292.06 43.06 293.70 33.04 293.00 24.00
C 297.00 24.00 301.00 24.00 305.00 24.00
M 285.00 39.00 
C 285.00 52.33 285.00 65.67 285.00 79.00
C 281.00 79.00 277.00 79.00 273.00 79.00
C 273.00 65.67 273.00 52.33 273.00 39.00
C 277.00 39.00 281.00 39.00 285.00 39.00
M 327.00 39.00 
C 327.00 52.33 327.00 65.67 327.00 79.00
C 322.67 79.00 318.33 79.00 314.00 79.00
C 314.00 65.67 314.00 52.33 314.00 39.00
C 318.33 39.00 322.67 39.00 327.00 39.00
M 345.00 43.00 
C 357.90 32.90 373.68 41.54 375.00 57.00 C 376.31 72.47 362.76 86.45 347.00 78.00
C 347.00 83.67 347.00 89.33 347.00 95.00
C 343.00 95.00 339.00 95.00 335.00 95.00
C 335.00 76.33 335.00 57.67 335.00 39.00
C 338.50 39.44 345.83 37.09 345.00 43.00
M 390.00 43.00 
C 403.29 33.26 418.77 41.07 420.00 57.00 C 421.23 72.93 408.34 86.18 392.00 78.00
C 392.00 83.67 392.00 89.33 392.00 95.00
C 388.00 95.00 384.00 95.00 380.00 95.00
C 380.00 76.33 380.00 57.67 380.00 39.00
C 383.63 39.68 391.44 36.64 390.00 43.00
M 234.00 117.00 
C 241.67 119.18 237.73 134.01 229.33 130.67 C 220.93 127.33 225.23 114.51 234.00 117.00
M 250.00 117.00 
C 258.01 119.03 253.49 134.18 245.33 130.67 C 237.17 127.15 241.11 114.75 250.00 117.00
M 195.00 120.00 
C 195.00 134.33 195.00 148.67 195.00 163.00
C 202.00 163.00 209.00 163.00 216.00 163.00
C 216.00 167.00 216.00 171.00 216.00 175.00
C 204.67 175.00 193.33 175.00 182.00 175.00
C 182.00 156.67 182.00 138.33 182.00 120.00
C 186.33 120.00 190.67 120.00 195.00 120.00
M 423.00 120.00 
C 423.00 126.00 423.00 132.00 423.00 138.00
C 430.03 134.34 444.47 131.73 446.97 142.03 C 449.48 152.33 447.23 164.22 448.00 175.00
C 444.00 175.00 440.00 175.00 436.00 175.00
C 433.35 168.21 442.05 146.25 430.00 147.00 C 417.95 147.75 424.74 167.51 423.00 175.00
C 419.00 175.00 415.00 175.00 411.00 175.00
C 411.00 156.67 411.00 138.33 411.00 120.00
C 415.00 120.00 419.00 120.00 423.00 120.00
M 281.00 126.00 
C 281.00 129.00 281.00 132.00 281.00 135.00
C 284.00 135.00 287.00 135.00 290.00 135.00
C 290.00 139.00 290.00 143.00 290.00 147.00
C 287.00 147.00 284.00 147.00 281.00 147.00
C 280.72 153.69 278.96 168.41 290.00 163.00
C 294.95 175.31 281.77 179.78 273.31 173.69 C 264.84 167.61 269.19 155.82 268.00 147.00
C 259.56 149.56 262.40 140.07 262.00 135.00
C 271.93 136.89 268.53 120.62 281.00 126.00
M 358.00 149.00 
C 354.63 146.13 345.70 141.68 344.00 148.00
C 355.08 147.90 371.05 159.33 362.69 170.69 C 354.34 182.06 337.40 176.75 332.00 167.00
C 335.37 166.10 337.11 162.62 340.00 161.00
C 342.66 165.59 347.96 166.65 353.00 166.00
C 350.72 157.11 335.21 161.66 333.22 150.78 C 331.23 139.89 341.22 133.22 351.00 134.00 C 360.78 134.79 369.63 142.87 358.00 149.00
M 247.00 135.00 
C 260.79 138.41 265.18 161.69 254.75 170.75 C 244.32 179.81 222.86 178.59 219.08 161.92 C 215.29 145.26 229.09 130.56 247.00 135.00
M 328.00 135.00 
C 331.35 148.16 317.64 154.36 312.00 164.00
C 317.33 164.00 322.67 164.00 328.00 164.00
C 328.00 167.67 328.00 171.33 328.00 175.00
C 317.00 175.00 306.00 175.00 295.00 175.00
C 292.29 162.28 305.89 156.14 312.00 147.00
C 306.67 147.00 301.33 147.00 296.00 147.00
C 296.00 143.00 296.00 139.00 296.00 135.00
C 306.67 135.00 317.33 135.00 328.00 135.00
M 407.00 147.00 
C 403.11 149.04 399.17 150.78 395.00 152.00
C 392.51 143.09 380.24 146.94 380.22 155.22 C 380.21 163.50 392.48 168.20 395.00 159.00
C 399.33 159.30 402.60 162.94 407.00 163.00
C 399.78 184.04 368.52 178.35 368.00 156.00 C 367.48 133.65 398.18 126.20 407.00 147.00 Z"/>
</g>
<g fill="#FEFEFE" fill-opacity="0.85" stroke="None">
<path d="
M 281.00 20.00 
C 271.66 18.02 267.71 32.26 277.00 35.00 C 286.28 37.73 289.88 21.88 281.00 20.00
M 279.00 23.00 
C 283.72 23.02 284.19 31.79 278.78 31.78 C 273.36 31.76 274.39 22.98 279.00 23.00 Z"/>
</g>
<g fill="#FEFEFE" fill-opacity="0.87" stroke="None">
<path d="
M 323.00 20.00 
C 313.76 17.66 309.20 31.33 318.33 34.67 C 327.46 38.01 332.07 22.30 323.00 20.00
M 321.00 23.00 
C 325.22 23.34 326.02 31.58 320.77 31.77 C 315.52 31.96 315.94 22.59 321.00 23.00 Z"/>
</g>
<g fill="#3DCFB6" fill-opacity="0.87" stroke="None">
<path d="
M 106.00 152.00 
C 100.21 151.53 92.61 152.63 87.00 152.00 C 81.39 151.37 72.96 153.21 68.00 152.00 C 63.04 150.79 51.74 154.92 49.00 151.00
C 49.00 117.00 49.00 83.00 49.00 49.00
C 57.33 49.00 65.67 49.00 74.00 49.00
C 72.46 71.03 72.65 104.33 93.92 116.08 C 115.19 127.82 142.97 124.16 155.69 102.69 C 168.42 81.23 160.97 47.92 163.00 23.00
C 116.33 23.00 69.67 23.00 23.00 23.00
C 23.04 32.89 22.95 43.15 23.00 53.00 C 23.05 62.85 22.90 72.19 23.00 82.00 C 23.10 91.81 22.79 102.25 23.00 112.00 C 23.21 121.75 22.52 131.37 23.00 141.00 C 23.48 150.63 21.93 160.52 23.00 170.00 C 24.08 179.48 39.74 173.89 48.00 175.00 C 56.26 176.11 68.07 174.42 77.00 175.00 C 85.93 175.58 96.88 174.56 106.00 175.00
C 103.30 169.22 109.60 157.15 106.00 152.00
M 160.00 26.00 
C 160.13 36.64 159.83 49.60 160.00 60.00 C 160.17 70.40 160.03 82.06 157.02 91.02 C 154.02 99.99 150.39 105.75 143.25 111.25 C 136.11 116.75 125.04 119.85 116.00 119.00 C 106.96 118.15 98.18 116.02 91.30 109.70 C 84.43 103.37 81.16 97.69 79.02 87.98 C 76.89 78.26 75.88 66.61 77.00 55.00 C 78.12 43.39 62.66 44.65 52.00 46.00 C 41.34 47.35 47.26 63.53 46.00 74.00 C 44.74 84.47 47.31 97.26 46.00 109.00 C 44.69 120.74 48.28 129.70 46.00 143.00 C 43.72 156.30 56.08 156.21 68.00 155.00 C 79.92 153.79 91.15 155.91 103.00 155.00
C 103.00 160.67 103.00 166.33 103.00 172.00
C 77.33 172.00 51.67 172.00 26.00 172.00
C 26.00 123.33 26.00 74.67 26.00 26.00
C 70.67 26.00 115.33 26.00 160.00 26.00 Z"/>
</g>
<g fill="#000000" fill-opacity="0.00" stroke="None">
<path d="
M 279.00 23.00 
C 274.39 22.98 273.36 31.76 278.78 31.78 C 284.19 31.79 283.72 23.02 279.00 23.00 Z"/>
</g>
<g fill="#000000" fill-opacity="0.00" stroke="None">
<path d="
M 321.00 23.00 
C 315.94 22.59 315.52 31.96 320.77 31.77 C 326.02 31.58 325.22 23.34 321.00 23.00 Z"/>
</g>
<g fill="#FEFEFE" fill-opacity="0.88" stroke="None">
<path d="
M 195.00 64.00 
C 212.10 68.20 227.60 55.11 222.32 37.68 C 217.04 20.24 196.93 24.27 182.00 24.00
C 182.00 42.33 182.00 60.67 182.00 79.00
C 186.33 79.00 190.67 79.00 195.00 79.00
C 195.00 74.00 195.00 69.00 195.00 64.00
M 192.00 76.00 
C 180.46 77.82 185.93 63.22 185.00 55.00 C 184.07 46.78 185.70 35.50 185.00 27.00
C 192.86 26.95 204.14 26.38 211.02 28.98 C 217.91 31.57 221.91 41.61 220.00 48.00 C 218.09 54.39 213.62 61.84 204.99 60.99 C 196.36 60.14 187.30 63.58 192.00 76.00 Z"/>
</g>
<g fill="#FEFEFE" fill-opacity="0.94" stroke="None">
<path d="
M 240.00 24.00 
C 236.00 24.00 232.00 24.00 228.00 24.00
C 228.00 42.33 228.00 60.67 228.00 79.00
C 232.00 79.00 236.00 79.00 240.00 79.00
C 241.74 71.51 234.95 51.76 247.00 51.00 C 259.05 50.25 250.35 72.21 253.00 79.00
C 257.00 79.00 261.00 79.00 265.00 79.00
C 264.23 68.22 266.48 56.33 263.97 46.03 C 261.47 35.73 247.03 38.34 240.00 42.00
C 240.00 36.00 240.00 30.00 240.00 24.00
M 237.00 27.00 
C 235.38 33.46 236.52 48.29 244.22 44.22 C 251.92 40.16 259.55 41.03 261.78 49.22 C 264.00 57.42 260.57 67.61 262.00 76.00
C 246.20 76.65 265.95 50.20 249.99 48.01 C 234.04 45.82 236.40 64.92 237.00 76.00
C 227.24 77.00 230.82 59.60 231.00 52.00 C 231.18 44.40 226.89 26.05 237.00 27.00 Z"/>
</g>
<g fill="#FEFEFE" fill-opacity="0.93" stroke="None">
<path d="
M 305.00 24.00 
C 301.00 24.00 297.00 24.00 293.00 24.00
C 293.70 33.04 292.06 43.06 293.00 52.00 C 293.94 60.94 289.82 69.61 296.25 76.75 C 302.68 83.89 313.42 78.43 309.00 68.00
C 301.82 64.90 305.77 55.13 305.00 48.00 C 304.23 40.87 305.58 31.35 305.00 24.00
M 302.00 27.00 
C 301.13 36.03 303.16 44.97 302.00 54.00 C 300.84 63.03 304.37 69.12 306.00 77.00
C 299.26 77.19 295.12 71.57 296.00 65.00 C 296.88 58.43 295.15 49.44 296.00 43.00 C 296.85 36.56 292.35 25.18 302.00 27.00 Z"/>
</g>
<g fill="#000000" fill-opacity="0.00" stroke="None">
<path d="
M 160.00 26.00 
C 115.33 26.00 70.67 26.00 26.00 26.00
C 26.00 74.67 26.00 123.33 26.00 172.00
C 51.67 172.00 77.33 172.00 103.00 172.00
C 103.00 166.33 103.00 160.67 103.00 155.00
C 91.15 155.91 79.92 153.79 68.00 155.00 C 56.08 156.21 43.72 156.30 46.00 143.00 C 48.28 129.70 44.69 120.74 46.00 109.00 C 47.31 97.26 44.74 84.47 46.00 74.00 C 47.26 63.53 41.34 47.35 52.00 46.00 C 62.66 44.65 78.12 43.39 77.00 55.00 C 75.88 66.61 76.89 78.26 79.02 87.98 C 81.16 97.69 84.43 103.37 91.30 109.70 C 98.18 116.02 106.96 118.15 116.00 119.00 C 125.04 119.85 136.11 116.75 143.25 111.25 C 150.39 105.75 154.02 99.99 157.02 91.02 C 160.03 82.06 160.17 70.40 160.00 60.00 C 159.83 49.60 160.13 36.64 160.00 26.00
M 142.00 46.00 
C 146.00 48.83 141.85 60.20 143.00 65.00 C 144.15 69.80 143.05 78.76 141.68 83.68 C 140.31 88.59 137.20 91.64 132.77 94.77 C 128.34 97.90 121.75 98.01 116.00 98.00 C 110.25 97.99 104.92 96.37 100.75 92.25 C 96.59 88.12 94.76 84.91 94.02 78.98 C 93.29 73.04 94.87 65.13 94.00 59.00 C 93.13 52.87 93.55 44.09 101.00 46.00 C 108.46 47.91 114.65 43.89 121.00 46.00 C 127.35 48.11 136.91 42.40 142.00 46.00 Z"/>
</g>
<g fill="#000000" fill-opacity="0.00" stroke="None">
<path d="
M 192.00 76.00 
C 187.30 63.58 196.36 60.14 204.99 60.99 C 213.62 61.84 218.09 54.39 220.00 48.00 C 221.91 41.61 217.91 31.57 211.02 28.98 C 204.14 26.38 192.86 26.95 185.00 27.00
C 185.70 35.50 184.07 46.78 185.00 55.00 C 185.93 63.22 180.46 77.82 192.00 76.00
M 206.00 33.00 
C 212.98 34.62 216.94 46.79 211.69 51.69 C 206.45 56.60 192.12 59.52 192.00 49.00 C 191.88 38.48 191.33 29.59 206.00 33.00 Z"/>
</g>
<g fill="#000000" fill-opacity="0.00" stroke="None">
<path d="
M 237.00 27.00 
C 226.89 26.05 231.18 44.40 231.00 52.00 C 230.82 59.60 227.24 77.00 237.00 76.00
C 236.40 64.92 234.04 45.82 249.99 48.01 C 265.95 50.20 246.20 76.65 262.00 76.00
C 260.57 67.61 264.00 57.42 261.78 49.22 C 259.55 41.03 251.92 40.16 244.22 44.22 C 236.52 48.29 235.38 33.46 237.00 27.00 Z"/>
</g>
<g fill="#000000" fill-opacity="0.00" stroke="None">
<path d="
M 302.00 27.00 
C 292.35 25.18 296.85 36.56 296.00 43.00 C 295.15 49.44 296.88 58.43 296.00 65.00 C 295.12 71.57 299.26 77.19 306.00 77.00
C 304.37 69.12 300.84 63.03 302.00 54.00 C 303.16 44.97 301.13 36.03 302.00 27.00 Z"/>
</g>
<g fill="#FEFEFE" fill-opacity="0.90" stroke="None">
<path d="
M 206.00 33.00 
C 191.33 29.59 191.88 38.48 192.00 49.00 C 192.12 59.52 206.45 56.60 211.69 51.69 C 216.94 46.79 212.98 34.62 206.00 33.00
M 195.00 52.00 
C 195.00 46.67 195.00 41.33 195.00 36.00
C 200.85 35.50 210.77 36.05 210.93 44.07 C 211.08 52.10 201.14 53.03 195.00 52.00 Z"/>
</g>
<g fill="#000000" fill-opacity="0.00" stroke="None">
<path d="
M 195.00 52.00 
C 201.14 53.03 211.08 52.10 210.93 44.07 C 210.77 36.05 200.85 35.50 195.00 36.00
C 195.00 41.33 195.00 46.67 195.00 52.00 Z"/>
</g>
<g fill="#FEFEFE" fill-opacity="0.95" stroke="None">
<path d="
M 285.00 39.00 
C 281.00 39.00 277.00 39.00 273.00 39.00
C 273.00 52.33 273.00 65.67 273.00 79.00
C 277.00 79.00 281.00 79.00 285.00 79.00
C 285.00 65.67 285.00 52.33 285.00 39.00
M 282.00 42.00 
C 282.00 53.33 282.00 64.67 282.00 76.00
C 272.87 78.32 275.99 64.87 276.00 59.00 C 276.01 53.13 272.80 39.72 282.00 42.00 Z"/>
</g>
<g fill="#FEFEFE" fill-opacity="0.85" stroke="None">
<path d="
M 327.00 39.00 
C 322.67 39.00 318.33 39.00 314.00 39.00
C 314.00 52.33 314.00 65.67 314.00 79.00
C 318.33 79.00 322.67 79.00 327.00 79.00
C 327.00 65.67 327.00 52.33 327.00 39.00
M 324.00 42.00 
C 324.00 53.33 324.00 64.67 324.00 76.00
C 313.79 79.00 316.99 65.40 317.00 59.00 C 317.01 52.60 313.74 39.04 324.00 42.00 Z"/>
</g>
<g fill="#FEFEFE" fill-opacity="0.91" stroke="None">
<path d="
M 345.00 43.00 
C 345.83 37.09 338.50 39.44 335.00 39.00
C 335.00 57.67 335.00 76.33 335.00 95.00
C 339.00 95.00 343.00 95.00 347.00 95.00
C 347.00 89.33 347.00 83.67 347.00 78.00
C 362.76 86.45 376.31 72.47 375.00 57.00 C 373.68 41.54 357.90 32.90 345.00 43.00
M 343.00 46.00 
C 349.50 44.42 358.39 39.55 364.74 44.26 C 371.09 48.97 373.76 58.74 371.07 65.07 C 368.39 71.41 363.61 81.00 354.00 77.00 C 344.38 73.00 341.76 81.30 344.00 92.00
C 333.50 92.65 339.05 78.14 338.00 70.00 C 336.95 61.86 338.79 50.44 338.00 42.00
C 341.45 40.92 342.07 43.50 343.00 46.00 Z"/>
</g>
<g fill="#FEFEFE" fill-opacity="0.90" stroke="None">
<path d="
M 390.00 43.00 
C 391.44 36.64 383.63 39.68 380.00 39.00
C 380.00 57.67 380.00 76.33 380.00 95.00
C 384.00 95.00 388.00 95.00 392.00 95.00
C 392.00 89.33 392.00 83.67 392.00 78.00
C 408.34 86.18 421.23 72.93 420.00 57.00 C 418.77 41.07 403.29 33.26 390.00 43.00
M 388.00 46.00 
C 394.95 44.21 402.94 40.11 409.74 44.26 C 416.54 48.40 418.65 58.73 416.22 65.22 C 413.79 71.71 408.56 80.89 399.00 77.00 C 389.44 73.11 386.73 81.17 389.00 92.00
C 378.50 92.65 384.05 78.14 383.00 70.00 C 381.95 61.86 383.79 50.44 383.00 42.00
C 386.45 40.92 387.07 43.50 388.00 46.00 Z"/>
</g>
<g fill="#000000" fill-opacity="0.00" stroke="None">
<path d="
M 282.00 42.00 
C 272.80 39.72 276.01 53.13 276.00 59.00 C 275.99 64.87 272.87 78.32 282.00 76.00
C 282.00 64.67 282.00 53.33 282.00 42.00 Z"/>
</g>
<g fill="#000000" fill-opacity="0.00" stroke="None">
<path d="
M 324.00 42.00 
C 313.74 39.04 317.01 52.60 317.00 59.00 C 316.99 65.40 313.79 79.00 324.00 76.00
C 324.00 64.67 324.00 53.33 324.00 42.00 Z"/>
</g>
<g fill="#000000" fill-opacity="0.00" stroke="None">
<path d="
M 343.00 46.00 
C 342.07 43.50 341.45 40.92 338.00 42.00
C 338.79 50.44 336.95 61.86 338.00 70.00 C 339.05 78.14 333.50 92.65 344.00 92.00
C 341.76 81.30 344.38 73.00 354.00 77.00 C 363.61 81.00 368.39 71.41 371.07 65.07 C 373.76 58.74 371.09 48.97 364.74 44.26 C 358.39 39.55 349.50 44.42 343.00 46.00
M 358.00 47.00 
C 371.15 49.81 366.75 75.84 352.33 71.67 C 337.91 67.50 342.43 43.67 358.00 47.00 Z"/>
</g>
<g fill="#000000" fill-opacity="0.00" stroke="None">
<path d="
M 388.00 46.00 
C 387.07 43.50 386.45 40.92 383.00 42.00
C 383.79 50.44 381.95 61.86 383.00 70.00 C 384.05 78.14 378.50 92.65 389.00 92.00
C 386.73 81.17 389.44 73.11 399.00 77.00 C 408.56 80.89 413.79 71.71 416.22 65.22 C 418.65 58.73 416.54 48.40 409.74 44.26 C 402.94 40.11 394.95 44.21 388.00 46.00
M 404.00 47.00 
C 417.15 50.99 411.00 76.21 396.78 71.22 C 382.56 66.23 388.93 42.43 404.00 47.00 Z"/>
</g>
<g fill="#3CCEB5" fill-opacity="0.86" stroke="None">
<path d="
M 142.00 46.00 
C 136.91 42.40 127.35 48.11 121.00 46.00 C 114.65 43.89 108.46 47.91 101.00 46.00 C 93.55 44.09 93.13 52.87 94.00 59.00 C 94.87 65.13 93.29 73.04 94.02 78.98 C 94.76 84.91 96.59 88.12 100.75 92.25 C 104.92 96.37 110.25 97.99 116.00 98.00 C 121.75 98.01 128.34 97.90 132.77 94.77 C 137.20 91.64 140.31 88.59 141.68 83.68 C 143.05 78.76 144.15 69.80 143.00 65.00 C 141.85 60.20 146.00 48.83 142.00 46.00
M 140.00 49.00 
C 140.38 67.37 143.95 94.44 119.00 95.00 C 94.05 95.56 95.70 67.68 97.00 49.00
C 111.33 49.00 125.67 49.00 140.00 49.00 Z"/>
</g>
<g fill="#FEFEFE" fill-opacity="0.91" stroke="None">
<path d="
M 358.00 47.00 
C 342.43 43.67 337.91 67.50 352.33 71.67 C 366.75 75.84 371.15 49.81 358.00 47.00
M 356.00 50.00 
C 364.86 50.99 364.74 69.72 354.31 68.65 C 343.87 67.57 344.73 48.74 356.00 50.00 Z"/>
</g>
<g fill="#FEFEFE" fill-opacity="0.92" stroke="None">
<path d="
M 404.00 47.00 
C 388.93 42.43 382.56 66.23 396.78 71.22 C 411.00 76.21 417.15 50.99 404.00 47.00
M 402.00 50.00 
C 411.09 51.99 409.13 70.24 398.77 68.21 C 388.42 66.18 391.00 47.59 402.00 50.00 Z"/>
</g>
<g fill="#000000" fill-opacity="0.00" stroke="None">
<path d="
M 140.00 49.00 
C 125.67 49.00 111.33 49.00 97.00 49.00
C 95.70 67.68 94.05 95.56 119.00 95.00 C 143.95 94.44 140.38 67.37 140.00 49.00 Z"/>
</g>
<g fill="#000000" fill-opacity="0.00" stroke="None">
<path d="
M 356.00 50.00 
C 344.73 48.74 343.87 67.57 354.31 68.65 C 364.74 69.72 364.86 50.99 356.00 50.00 Z"/>
</g>
<g fill="#000000" fill-opacity="0.00" stroke="None">
<path d="
M 402.00 50.00 
C 391.00 47.59 388.42 66.18 398.77 68.21 C 409.13 70.24 411.09 51.99 402.00 50.00 Z"/>
</g>
<g fill="#FEFEFE" fill-opacity="0.85" stroke="None">
<path d="
M 234.00 117.00 
C 225.23 114.51 220.93 127.33 229.33 130.67 C 237.73 134.01 241.67 119.18 234.00 117.00
M 232.00 120.00 
C 235.40 120.50 235.83 127.85 231.25 127.59 C 226.68 127.34 227.47 119.33 232.00 120.00 Z"/>
</g>
<g fill="#FEFEFE" fill-opacity="0.85" stroke="None">
<path d="
M 250.00 117.00 
C 241.11 114.75 237.17 127.15 245.33 130.67 C 253.49 134.18 258.01 119.03 250.00 117.00
M 248.00 120.00 
C 252.04 120.49 251.47 127.93 247.25 127.59 C 243.04 127.26 243.38 119.44 248.00 120.00 Z"/>
</g>
<g fill="#FEFEFE" fill-opacity="0.88" stroke="None">
<path d="
M 195.00 120.00 
C 190.67 120.00 186.33 120.00 182.00 120.00
C 182.00 138.33 182.00 156.67 182.00 175.00
C 193.33 175.00 204.67 175.00 216.00 175.00
C 216.00 171.00 216.00 167.00 216.00 163.00
C 209.00 163.00 202.00 163.00 195.00 163.00
C 195.00 148.67 195.00 134.33 195.00 120.00
M 192.00 123.00 
C 190.26 135.32 194.31 142.13 192.00 155.00 C 189.69 167.87 202.10 167.20 213.00 166.00
C 215.24 173.91 207.32 171.93 202.00 172.00 C 196.68 172.07 190.41 171.95 185.00 172.00
C 185.71 163.49 184.06 152.24 185.00 144.00 C 185.94 135.76 180.42 121.22 192.00 123.00 Z"/>
</g>
<g fill="#000000" fill-opacity="0.00" stroke="None">
<path d="
M 232.00 120.00 
C 227.47 119.33 226.68 127.34 231.25 127.59 C 235.83 127.85 235.40 120.50 232.00 120.00 Z"/>
</g>
<g fill="#000000" fill-opacity="0.00" stroke="None">
<path d="
M 248.00 120.00 
C 243.38 119.44 243.04 127.26 247.25 127.59 C 251.47 127.93 252.04 120.49 248.00 120.00 Z"/>
</g>
<g fill="#FEFEFE" fill-opacity="0.94" stroke="None">
<path d="
M 423.00 120.00 
C 419.00 120.00 415.00 120.00 411.00 120.00
C 411.00 138.33 411.00 156.67 411.00 175.00
C 415.00 175.00 419.00 175.00 423.00 175.00
C 424.74 167.51 417.95 147.75 430.00 147.00 C 442.05 146.25 433.35 168.21 436.00 175.00
C 440.00 175.00 444.00 175.00 448.00 175.00
C 447.23 164.22 449.48 152.33 446.97 142.03 C 444.47 131.73 430.03 134.34 423.00 138.00
C 423.00 132.00 423.00 126.00 423.00 120.00
M 420.00 123.00 
C 418.38 129.46 419.52 144.29 427.22 140.22 C 434.92 136.16 442.55 137.03 444.78 145.22 C 447.00 153.42 443.57 163.61 445.00 172.00
C 429.20 172.65 448.94 146.20 432.99 144.01 C 417.04 141.82 419.40 160.92 420.00 172.00
C 410.24 173.00 413.82 155.60 414.00 148.00 C 414.18 140.40 409.89 122.06 420.00 123.00 Z"/>
</g>
<g fill="#000000" fill-opacity="0.00" stroke="None">
<path d="
M 192.00 123.00 
C 180.42 121.22 185.94 135.76 185.00 144.00 C 184.06 152.24 185.71 163.49 185.00 172.00
C 190.41 171.95 196.68 172.07 202.00 172.00 C 207.32 171.93 215.24 173.91 213.00 166.00
C 202.10 167.20 189.69 167.87 192.00 155.00 C 194.31 142.13 190.26 135.32 192.00 123.00 Z"/>
</g>
<g fill="#000000" fill-opacity="0.00" stroke="None">
<path d="
M 420.00 123.00 
C 409.89 122.06 414.18 140.40 414.00 148.00 C 413.82 155.60 410.24 173.00 420.00 172.00
C 419.40 160.92 417.04 141.82 432.99 144.01 C 448.94 146.20 429.20 172.65 445.00 172.00
C 443.57 163.61 447.00 153.42 444.78 145.22 C 442.55 137.03 434.92 136.16 427.22 140.22 C 419.52 144.29 418.38 129.46 420.00 123.00 Z"/>
</g>
<g fill="#FEFEFE" fill-opacity="0.85" stroke="None">
<path d="
M 281.00 126.00 
C 268.53 120.62 271.93 136.89 262.00 135.00
C 262.40 140.07 259.56 149.56 268.00 147.00
C 269.19 155.82 264.84 167.61 273.31 173.69 C 281.77 179.78 294.95 175.31 290.00 163.00
C 278.96 168.41 280.72 153.69 281.00 147.00
C 284.00 147.00 287.00 147.00 290.00 147.00
C 290.00 143.00 290.00 139.00 290.00 135.00
C 287.00 135.00 284.00 135.00 281.00 135.00
C 281.00 132.00 281.00 129.00 281.00 126.00
M 278.00 129.00 
C 276.07 135.86 280.15 139.88 287.00 138.00
C 288.09 146.01 276.15 142.93 278.00 152.00 C 279.85 161.07 275.39 167.61 287.00 167.00
C 287.86 177.41 274.61 172.57 272.08 165.92 C 269.54 159.28 275.43 143.25 265.00 144.00
C 262.21 137.45 268.90 139.22 271.25 136.25 C 273.59 133.27 271.58 126.87 278.00 129.00 Z"/>
</g>
<g fill="#000000" fill-opacity="0.00" stroke="None">
<path d="
M 278.00 129.00 
C 271.58 126.87 273.59 133.27 271.25 136.25 C 268.90 139.22 262.21 137.45 265.00 144.00
C 275.43 143.25 269.54 159.28 272.08 165.92 C 274.61 172.57 287.86 177.41 287.00 167.00
C 275.39 167.61 279.85 161.07 278.00 152.00 C 276.15 142.93 288.09 146.01 287.00 138.00
C 280.15 139.88 276.07 135.86 278.00 129.00 Z"/>
</g>
<g fill="#FEFEFE" fill-opacity="0.88" stroke="None">
<path d="
M 358.00 149.00 
C 369.63 142.87 360.78 134.79 351.00 134.00 C 341.22 133.22 331.23 139.89 333.22 150.78 C 335.21 161.66 350.72 157.11 353.00 166.00
C 347.96 166.65 342.66 165.59 340.00 161.00
C 337.11 162.62 335.37 166.10 332.00 167.00
C 337.40 176.75 354.34 182.06 362.69 170.69 C 371.05 159.33 355.08 147.90 344.00 148.00
C 345.70 141.68 354.63 146.13 358.00 149.00
M 360.00 141.00 
C 357.66 148.38 344.25 135.79 341.25 144.25 C 338.25 152.71 350.47 153.30 356.22 155.78 C 361.98 158.25 363.73 167.53 356.92 170.92 C 350.11 174.31 341.90 173.99 337.00 168.00
C 340.49 163.60 352.97 175.20 355.92 166.92 C 358.86 158.63 347.59 157.19 341.78 155.22 C 335.97 153.26 334.30 143.38 340.75 139.75 C 347.21 136.12 353.80 137.18 360.00 141.00 Z"/>
</g>
<g fill="#FEFEFE" fill-opacity="0.90" stroke="None">
<path d="
M 247.00 135.00 
C 229.09 130.56 215.29 145.26 219.08 161.92 C 222.86 178.59 244.32 179.81 254.75 170.75 C 265.18 161.69 260.79 138.41 247.00 135.00
M 245.00 138.00 
C 266.28 143.27 256.82 179.30 234.78 172.22 C 212.74 165.14 222.16 132.34 245.00 138.00 Z"/>
</g>
<g fill="#FEFEFE" fill-opacity="0.88" stroke="None">
<path d="
M 328.00 135.00 
C 317.33 135.00 306.67 135.00 296.00 135.00
C 296.00 139.00 296.00 143.00 296.00 147.00
C 301.33 147.00 306.67 147.00 312.00 147.00
C 305.89 156.14 292.29 162.28 295.00 175.00
C 306.00 175.00 317.00 175.00 328.00 175.00
C 328.00 171.33 328.00 167.67 328.00 164.00
C 322.67 164.00 317.33 164.00 312.00 164.00
C 317.64 154.36 331.35 148.16 328.00 135.00
M 325.00 138.00 
C 323.42 147.60 321.06 148.56 313.25 156.25 C 305.44 163.94 313.61 170.63 325.00 167.00
C 326.72 174.19 318.82 171.73 314.00 172.00 C 309.18 172.27 302.95 171.80 298.00 172.00
C 300.94 163.16 302.13 161.70 310.25 154.25 C 318.36 146.80 310.62 140.68 299.00 144.00
C 298.34 132.14 317.03 140.50 325.00 138.00 Z"/>
</g>
<g fill="#FEFEFE" fill-opacity="0.89" stroke="None">
<path d="
M 407.00 147.00 
C 398.18 126.20 367.48 133.65 368.00 156.00 C 368.52 178.35 399.78 184.04 407.00 163.00
C 402.60 162.94 399.33 159.30 395.00 159.00
C 392.48 168.20 380.21 163.50 380.22 155.22 C 380.24 146.94 392.51 143.09 395.00 152.00
C 399.17 150.78 403.11 149.04 407.00 147.00
M 402.00 146.00 
C 396.34 148.12 385.55 139.77 380.25 146.25 C 374.95 152.74 376.08 160.28 382.25 165.75 C 388.41 171.23 397.31 160.42 402.00 166.00
C 391.73 179.94 370.97 171.31 371.00 155.00 C 371.04 138.69 394.26 130.83 402.00 146.00 Z"/>
</g>
<g fill="#000000" fill-opacity="0.00" stroke="None">
<path d="
M 360.00 141.00 
C 353.80 137.18 347.21 136.12 340.75 139.75 C 334.30 143.38 335.97 153.26 341.78 155.22 C 347.59 157.19 358.86 158.63 355.92 166.92 C 352.97 175.20 340.49 163.60 337.00 168.00
C 341.90 173.99 350.11 174.31 356.92 170.92 C 363.73 167.53 361.98 158.25 356.22 155.78 C 350.47 153.30 338.25 152.71 341.25 144.25 C 344.25 135.79 357.66 148.38 360.00 141.00 Z"/>
</g>
<g fill="#000000" fill-opacity="0.00" stroke="None">
<path d="
M 245.00 138.00 
C 222.16 132.34 212.74 165.14 234.78 172.22 C 256.82 179.30 266.28 143.27 245.00 138.00
M 245.00 144.00 
C 258.93 148.23 247.92 174.82 234.33 166.67 C 220.74 158.52 229.89 139.41 245.00 144.00 Z"/>
</g>
<g fill="#000000" fill-opacity="0.00" stroke="None">
<path d="
M 325.00 138.00 
C 317.03 140.50 298.34 132.14 299.00 144.00
C 310.62 140.68 318.36 146.80 310.25 154.25 C 302.13 161.70 300.94 163.16 298.00 172.00
C 302.95 171.80 309.18 172.27 314.00 172.00 C 318.82 171.73 326.72 174.19 325.00 167.00
C 313.61 170.63 305.44 163.94 313.25 156.25 C 321.06 148.56 323.42 147.60 325.00 138.00 Z"/>
</g>
<g fill="#000000" fill-opacity="0.00" stroke="None">
<path d="
M 402.00 146.00 
C 394.26 130.83 371.04 138.69 371.00 155.00 C 370.97 171.31 391.73 179.94 402.00 166.00
C 397.31 160.42 388.41 171.23 382.25 165.75 C 376.08 160.28 374.95 152.74 380.25 146.25 C 385.55 139.77 396.34 148.12 402.00 146.00 Z"/>
</g>
<g fill="#FEFEFE" fill-opacity="0.92" stroke="None">
<path d="
M 245.00 144.00 
C 229.89 139.41 220.74 158.52 234.33 166.67 C 247.92 174.82 258.93 148.23 245.00 144.00
M 243.00 147.00 
C 252.86 150.11 246.35 168.37 236.33 163.67 C 226.30 158.97 232.08 143.55 243.00 147.00 Z"/>
</g>
<g fill="#000000" fill-opacity="0.00" stroke="None">
<path d="
M 243.00 147.00 
C 232.08 143.55 226.30 158.97 236.33 163.67 C 246.35 168.37 252.86 150.11 243.00 147.00 Z"/>
</g>
<g fill="#00FF80" fill-opacity="0.01" stroke="None">
<path d="
M 106.00 152.00 
C 103.26 148.08 91.96 152.21 87.00 151.00 C 82.04 149.79 73.62 151.63 68.00 151.00 C 62.38 150.37 54.79 151.47 49.00 151.00
C 51.74 154.92 63.04 150.79 68.00 152.00 C 72.96 153.21 81.39 151.37 87.00 152.00 C 92.61 152.63 100.21 151.53 106.00 152.00 Z"/>
</g>
</svg>